<svg xmlns="http://www.w3.org/2000/svg" width="24" height="24" fill="none">
  <path fill="#000" d="M4 21h9.62a4 4 0 0 0 3.037-1.397l5.102-5.952a1 1 0 0 0-.442-1.6l-1.968-.656a3.04 3.04 0 0 0-2.823.503l-3.185 2.547-.617-1.235A3.98 3.98 0 0 0 9.146 11H4c-1.103 0-2 .897-2 2v6c0 1.103.897 2 2 2m0-8h5.146c.763 0 1.448.423 1.789 1.105l.447.895H7v2h6.014a1 1 0 0 0 .442-.11l.003-.001.004-.002h.003l.002-.001h.004l.001-.001c.009.003.003-.001.003-.001.01 0 .002-.001.002-.001h.001l.002-.001.003-.001.004-.002.003-.001.002-.001q.003 0 .002-.001l.003-.002.004-.002.003-.001.002-.001h.001l.002-.001.003-.001.002-.001c.009-.001.003-.001.003-.001l.002-.001a1 1 0 0 0 .11-.078l4.146-3.317c.262-.208.623-.273.94-.167l.557.186-4.133 4.823a2.03 2.03 0 0 1-1.52.688H4zM15.983 2c-.163.002-1.006.039-1.983.705-.951-.648-1.774-.7-1.968-.704L12.002 2h-.004c-.801 0-1.555.313-2.119.878A2.98 2.98 0 0 0 9 5c0 .802.313 1.555.861 2.104l3.414 3.586a1.005 1.005 0 0 0 1.45-.001l3.396-3.568A2.98 2.98 0 0 0 19 5c0-.802-.313-1.555-.878-2.121A2.98 2.98 0 0 0 16.002 2zM17 5c0 .267-.104.518-.311.725L14 8.55l-2.707-2.843A1 1 0 0 1 11 5c0-.267.104-.518.294-.708A.98.98 0 0 1 11.979 4c.025.001.502.032 1.067.485q.121.098.247.222l.707.707.707-.707q.126-.124.247-.222c.529-.425.976-.478 1.052-.484a.99.99 0 0 1 .701.292c.189.189.293.44.293.707"/>
</svg>
