<svg xmlns="http://www.w3.org/2000/svg" width="24" height="24" fill="none">
  <path fill="#000" d="m21.88 2.15-1.2.4a13.84 13.84 0 0 1-6.41.64 11.87 11.87 0 0 0-6.68.9A7.23 7.23 0 0 0 3.3 9.5a8.65 8.65 0 0 0 1.47 6.6c-.06.21-.12.42-.17.63A22.6 22.6 0 0 0 4 22h2c.094-1.452.29-2.896.59-4.32a9.25 9.25 0 0 0 4.52 1.11 11 11 0 0 0 4.28-.87C23 14.67 22 3.86 22 3.41zm-7.27 13.93c-2.61 1.11-5.73.92-7.48-.45.296-.989.701-1.942 1.21-2.84A10.2 10.2 0 0 1 9.73 11a9 9 0 0 1 1.81-1.42A12 12 0 0 1 16 8V7a11.4 11.4 0 0 0-5.26 1.08 10.3 10.3 0 0 0-4.12 3.65q-.566.9-1 1.87a7 7 0 0 1-.38-3.73 5.24 5.24 0 0 1 3.14-4 8.9 8.9 0 0 1 3.82-.84c.62 0 1.23.06 1.87.11a16.2 16.2 0 0 0 6-.35C20 7.55 19.5 14 14.61 16.08"/>
</svg>
