<svg style="position: absolute; width: 0; height: 0; overflow: hidden;" aria-hidden="true" version="1.1" xmlns="http://www.w3.org/2000/svg" xmlns:xlink="http://www.w3.org/1999/xlink">
    <defs>
        <symbol id="logo" viewBox="0 0 112 48" fill="currentColor" clip-rule="evenodd">
            <path d="M24.6613 15.0546l0.0182 0.015 0.1829 0.1523 0.147 0.1226 0.6505 0.5412 12e-4 15.1169c-3.4647 2.8609-6.9512 5.6956-10.4585 8.5034-0.2226-0.0221-5.9995-4.7733-8.934-7.1869l-0.082-0.0675c-0.7521-0.6184-1.3049-1.073-1.5093-1.2381L4.667 15.8939 15.1149 7.3334c0.3405 0.0482 6.8628 5.4841 9.5464 7.7212zM20.1497 18.143l-0.0118-0.0189-18e-4-34e-4-0.0164-0.0262c-1.717-2.7783-4.7248-7.6447-4.9821-7.8294l-6.0624 9.6594 0.0136 6.7056 1.219 2.0003c0.5338 0.076 1.072 0.1629 1.6122 0.2502 1.0956 0.177 2.1985 0.3552 3.2862 0.4456l0.6578-0.0981 0.7932-0.1197c1.1204-0.1694 2.2411-0.3388 3.3637-0.4889l1.2229-1.8993-6e-4-6.8147c-0.1458-0.2287-0.5534-0.8884-1.0935-1.7625zM21.6962 20.7167c0.4267 0.5333 0.7932 1.1872 1.1482 1.8208 0.1026 0.1825 0.2039 0.3633 0.3055 0.539 0.0505 0.0874 0.101 0.1735 0.1518 0.258l-0.2035 0.3323-0.2114 0.3435c-0.1845 0.2983-0.3699 0.596-0.5568 0.8929l-0.6453 1.047c-6e-4-0.5034-48e-4-1.0077-91e-4-1.5124-0.0102-1.2411-0.0202-2.4844 0.0206-3.7211zM16.8592 9.2214c-0.5014-0.4404-1.1165-0.9804-1.4854-1.1377l0.0111 0.4962c91e-4 0.3897 0.0182 0.7795 0.0215 1.1692 1.9257 3.1077 3.8675 6.2057 5.8253 9.2935-3e-4-0.095-45e-4-0.2436-97e-4-0.4258v-93e-4-96e-4-5e-3-63e-4c-0.0233-0.87-0.0656-2.4522 0.1564-2.6854 57e-4-63e-4 0.0121-0.0122 0.019-0.0178l0.0167-0.0135 0.0166-0.0136 0.1956 0.0856c0.1509 0.6875 0.1147 1.76 0.0823 2.7156l-6e-4 0.0139-18e-4 0.0584c-0.013 0.3981-0.0251 0.7734-0.0215 1.0888 0.2574 0.4307 0.5214 0.8588 0.7857 1.2872 0.459 0.744 0.9184 1.4887 1.3442 2.2489l-2.1269 3.4151 52e-4 2.1887v1.6853l3.5273 19e-4-76e-4-14.5454c-2.5853-2.175-5.196-4.3191-7.8324-6.4316l-0.0813-0.0666-0.0747-0.0629c-0.1095-0.0932-0.2332-0.202-0.365-0.3178zM14.866 8.1112l0.0505 0.0433c0.1019 0.3027 0.0735 0.7698 0.049 1.1744-91e-4 0.1484-0.0175 0.2885-0.019 0.4088l-5.884 9.3902c15e-4-0.1452 57e-4-0.2985 0.0115-0.4571l54e-4-0.1456 0.0118-0.2844c0.03-0.7097 0.062-1.4719-0.0169-2.0686-0.0221-0.1672-0.072-0.2275-0.2014-0.3254l-0.1361 0.0258c-0.2056 0.3199-0.1467 2.3-0.1146 3.3787l94e-4 0.3337c27e-4 0.0978 45e-4 0.1792 51e-4 0.2402-0.7061 1.1542-1.4026 2.314-2.0899 3.4793l2.0941 3.4343-87e-4 1.9638-7e-3 1.9438-3.5167-52e-4 0.0133-14.5331c2.0951-1.8072 4.2555-3.5511 6.4141-5.2933 1.1138-0.8987 2.2269-1.7971 3.3301-2.7036zM12.6085 29.4221c-0.6616-0.1179-1.3227-0.2357-1.9804-0.289l0.5086 0.8166c1.356 2.1762 2.7153 4.3584 4.0121 6.5675 0.6574-1.0605 1.3085-2.1248 1.952-3.1929 0.2912-0.4695 0.58-0.9408 0.8688-1.4122 0.5719-0.9338 1.1443-1.8678 1.7355-2.788-0.3683 0.0522-0.8065 0.1278-1.2728 0.2082-1.1573 0.1998-2.4888 0.4295-3.3591 0.4058-0.8174-0.0223-1.6412-0.1692-2.4647-0.316zM9.0658 28.8971 10.062 29.041c0.6677 1.1075 1.3469 2.2083 2.0261 3.3091l27e-4 49e-4 0.0182 0.0296c0.9519 1.5435 1.9039 3.0873 2.8248 4.65-7e-4 0.2434 0 0.4869 21e-4 0.7304 27e-4 0.3491 78e-4 0.6982 0.0157 1.047l-1.9856-1.6252-7.4952-6.1138c0.841 0.0117 1.6829 91e-4 2.5245 66e-4 0.3553-11e-4 0.7107-22e-4 1.0657-22e-4 0.0196-0.7259 63e-4-1.4538 48e-4-2.1803zM20.9964 28.93l-0.0372 35e-4-0.6895 0.1062-4.8763 7.9361-0.019 1.8305c0.3142-0.2562 0.6287-0.5114 0.9441-0.7659 0.3946-0.3187 0.7905-0.6362 1.1869-0.9527 2.4677-1.9802 4.9154-3.9847 7.3431-6.0141l-3.6002 38e-4c22e-4-0.1607 88e-4-0.3283 0.0158-0.4992l9e-4-0.0148c0.022-0.5309 0.0453-1.0925-0.0608-1.5761-0.0947-0.0711-0.1068-0.0696-0.1796-0.0607zM8.6397 25.7334l-15e-4 0.1631-0.521-0.8513c-0.2214-0.4069-0.4688-0.8059-0.7152-1.2032-0.1098-0.1771-0.2193-0.3539-0.3263-0.5309 0.3042-0.571 0.6384-1.1295 0.9722-1.6871l0.2553-0.4269c0.084-0.1417 0.1678-0.2836 0.2503-0.4257 0.1745 0.2655 0.1225 3.0062 0.0959 4.4069-42e-4 0.2248-79e-4 0.4151-97e-4 0.5551zM20.7702 28.4486l0.0904-0.1614c0.1591-0.2852 0.3191-0.5716 0.5253-0.8255 0.0185 0.2623-9e-4 0.6193-0.0481 0.8341-0.2585 0.0949-0.3634 0.1285-0.5676 0.1528zM9.0918 27.5513c0.2453 0.302 0.4246 0.6499 0.6154 0.987-0.0701-84e-4-0.1022-0.011-0.1336-0.017-0.0599-0.0115-0.1174-0.0356-0.434-0.1359-0.0478-0.3044-0.0665-0.5718-0.0478-0.8341z" fill-rule="evenodd" />
            <path stroke-width="0.266667" stroke="currentColor" fill="none" d="M20.1379 18.1241l0.0118 0.0189c0.5401 0.8741 0.9477 1.5338 1.0935 1.7625l6e-4 6.8147-1.2229 1.8993c-1.1226 0.1501-2.2433 0.3195-3.3637 0.4889l-0.7932 0.1197-0.6578 0.0981c-1.0877-0.0904-2.1906-0.2686-3.2862-0.4456-0.5402-0.0873-1.0784-0.1742-1.6122-0.2502l-1.219-2.0003-0.0136-6.7056 6.0624-9.6594M20.1379 18.1241l-18e-4-34e-4-0.0164-0.0262c-1.717-2.7783-4.7248-7.6447-4.9821-7.8294M20.1379 18.1241c-0.4288-0.6941-0.9402-1.5216-1.4697-2.375-1.5864-2.556-3.3371-5.345-3.5306-5.484M21.2317 19.0426c-1.9578-3.0878-3.8996-6.1858-5.8253-9.2935-33e-4-0.3897-0.0124-0.7795-0.0215-1.1692l-0.0111-0.4962c0.3689 0.1573 0.984 0.6973 1.4854 1.1377 0.1318 0.1158 0.2555 0.2246 0.365 0.3178l0.0747 0.0629 0.0813 0.0666c2.6364 2.1125 5.2471 4.2566 7.8324 6.4316l76e-4 14.5454-3.5273-19e-4v-1.6853l-52e-4-2.1887 2.1269-3.4151c-0.4258-0.7602-0.8852-1.5049-1.3442-2.2489-0.2643-0.4284-0.5283-0.8565-0.7857-1.2872M21.2317 19.0426c-3e-4-0.095-45e-4-0.2436-97e-4-0.4258M21.2317 19.0426c0-15e-4 0-3e-3 0-45e-4 0-0.0951-45e-4-0.2419-97e-4-0.4213M21.222 18.6168v-93e-4-96e-4-5e-3-63e-4c-0.0233-0.87-0.0656-2.4522 0.1564-2.6854 57e-4-63e-4 0.0121-0.0122 0.019-0.0178l0.0167-0.0135 0.0166-0.0136 0.1956 0.0856c0.1509 0.6875 0.1147 1.76 0.0823 2.7156M21.7086 18.6575l-6e-4 0.0139-18e-4 0.0584c-0.013 0.3981-0.0251 0.7734-0.0215 1.0888M21.7086 18.6575c-21e-4 0.0623-39e-4 0.1251-6e-3 0.1862-0.0115 0.3557-0.0212 0.6897-0.0179 0.9749M9.5736 28.5213c0.0314 6e-3 0.0635 86e-4 0.1336 0.017-0.1908-0.3371-0.3701-0.685-0.6154-0.987-0.0187 0.2623 0 0.5297 0.0478 0.8341M9.5736 28.5213c-0.0599-0.0115-0.1174-0.0356-0.434-0.1359M9.5736 28.5213c-0.0593-0.0114-0.115-0.0346-0.4222-0.1322-39e-4-12e-4-79e-4-24e-4-0.0118-37e-4M24.6613 15.0546l0.0182 0.015 0.1829 0.1523 0.147 0.1226 0.6505 0.5412 12e-4 15.1169c-3.4647 2.8609-6.9512 5.6956-10.4585 8.5034-0.2226-0.0221-5.9995-4.7733-8.934-7.1869l-0.082-0.0675c-0.7521-0.6184-1.3049-1.073-1.5093-1.2381L4.667 15.8939 15.1149 7.3334c0.3405 0.0482 6.8628 5.4841 9.5464 7.7212zM21.6962 20.7167c0.4267 0.5333 0.7932 1.1872 1.1482 1.8208 0.1026 0.1825 0.2039 0.3633 0.3055 0.539 0.0505 0.0874 0.101 0.1735 0.1518 0.258l-0.2035 0.3323-0.2114 0.3435c-0.1845 0.2983-0.3699 0.596-0.5568 0.8929l-0.6453 1.047c-6e-4-0.5034-48e-4-1.0077-91e-4-1.5124-0.0102-1.2411-0.0202-2.4844 0.0206-3.7211zM14.866 8.1112l0.0505 0.0433c0.1019 0.3027 0.0735 0.7698 0.049 1.1744-91e-4 0.1484-0.0175 0.2885-0.019 0.4088l-5.884 9.3902c15e-4-0.1452 57e-4-0.2985 0.0115-0.4571l54e-4-0.1456 0.0118-0.2844c0.03-0.7097 0.062-1.4719-0.0169-2.0686-0.0221-0.1672-0.072-0.2275-0.2014-0.3254l-0.1361 0.0258c-0.2056 0.3199-0.1467 2.3-0.1146 3.3787l94e-4 0.3337c27e-4 0.0978 45e-4 0.1792 51e-4 0.2402-0.7061 1.1542-1.4026 2.314-2.0899 3.4793l2.0941 3.4343-87e-4 1.9638-7e-3 1.9438-3.5167-52e-4 0.0133-14.5331c2.0951-1.8072 4.2555-3.5511 6.4141-5.2933 1.1138-0.8987 2.2269-1.7971 3.3301-2.7036zM12.6085 29.4221c-0.6616-0.1179-1.3227-0.2357-1.9804-0.289l0.5086 0.8166c1.356 2.1762 2.7153 4.3584 4.0121 6.5675 0.6574-1.0605 1.3085-2.1248 1.952-3.1929 0.2912-0.4695 0.58-0.9408 0.8688-1.4122 0.5719-0.9338 1.1443-1.8678 1.7355-2.788-0.3683 0.0522-0.8065 0.1278-1.2728 0.2082-1.1573 0.1998-2.4888 0.4295-3.3591 0.4058-0.8174-0.0223-1.6412-0.1692-2.4647-0.316zM9.0658 28.8971 10.062 29.041c0.6677 1.1075 1.3469 2.2083 2.0261 3.3091l27e-4 49e-4 0.0182 0.0296c0.9519 1.5435 1.9039 3.0873 2.8247 4.65-6e-4 0.2434 0 0.4869 22e-4 0.7304 27e-4 0.3491 78e-4 0.6982 0.0157 1.047l-1.9856-1.6252-7.4952-6.1138c0.841 0.0117 1.6829 91e-4 2.5245 66e-4 0.3553-11e-4 0.7107-22e-4 1.0657-22e-4 0.0196-0.7259 63e-4-1.4538 48e-4-2.1803zM20.9964 28.93l-0.0372 35e-4-0.6895 0.1062-4.8763 7.9361-0.019 1.8305c0.3142-0.2562 0.6287-0.5114 0.9441-0.7659 0.3946-0.3187 0.7905-0.6362 1.1869-0.9527 2.4677-1.9802 4.9154-3.9847 7.3431-6.0141l-3.6002 38e-4c22e-4-0.1607 88e-4-0.3283 0.0158-0.4992l9e-4-0.0148c0.022-0.5309 0.0453-1.0925-0.0608-1.5761-0.0947-0.0711-0.1068-0.0696-0.1796-0.0607zM8.6397 25.7334l-15e-4 0.1631-0.521-0.8513c-0.2214-0.4069-0.4688-0.8059-0.7152-1.2032-0.1098-0.1771-0.2193-0.3539-0.3263-0.5309 0.3042-0.571 0.6384-1.1295 0.9722-1.6871l0.2553-0.4269c0.084-0.1417 0.1678-0.2836 0.2503-0.4257 0.1745 0.2655 0.1225 3.0062 0.0959 4.4069-42e-4 0.2248-79e-4 0.4151-97e-4 0.5551zM20.7702 28.4486l0.0904-0.1614c0.1591-0.2852 0.3191-0.5716 0.5253-0.8255 0.0185 0.2623-9e-4 0.6193-0.0481 0.8341-0.2585 0.0949-0.3634 0.1285-0.5676 0.1528z" />
            <path stroke-width="0.266667" stroke="currentColor" d="M20.1493 18.1428c-0.2141-0.3462-0.4488-0.726-0.6962-1.1261 0.2429 0.3928 0.4736 0.7661 0.6844 1.1072z" fill-rule="evenodd" />
            <path d="M21.2314 19.0425c-3e-4-0.0982-46e-4-0.2539-97e-4-0.4447v96e-4c51e-4 0.1865 94e-4 0.3385 97e-4 0.4351z" fill-rule="evenodd" />
            <path stroke-width="0.266667" stroke="currentColor" fill="none" d="M21.2217 18.6074v-96e-4c51e-4 0.1908 94e-4 0.3465 97e-4 0.4447-3e-4-0.0966-46e-4-0.2486-97e-4-0.4351zM21.2217 18.6074v93e-4c51e-4 0.1794 97e-4 0.3261 97e-4 0.4212" />
            <path stroke-width="0.266667" stroke="currentColor" d="M9.0768 18.566c-75e-4 0.196-0.0136 0.3849-0.0154 0.5618 15e-4-0.1452 57e-4-0.2985 0.0115-0.4571 12e-4-0.0344 27e-4-0.0699 39e-4-0.1047zM8.6356 19.8251c-9e-4-0.1212-69e-4-0.3232-0.0145-0.5738l94e-4 0.3336c27e-4 0.0978 45e-4 0.1792 51e-4 0.2402z" fill-rule="evenodd" />
            <path d="M21.25 30.9751c33e-4-0.1338 91e-4-0.2717 0.0148-0.4117l-9e-4 0.0148c-54e-4 0.1354-0.0109 0.2674-0.0139 0.3969z" fill-rule="evenodd" />
            <path stroke-width="0.266667" stroke="currentColor" fill="none" d="M21.2639 30.5782l9e-4-0.0148c-57e-4 0.14-0.0115 0.2779-0.0148 0.4117 3e-3-0.1295 85e-4-0.2615 0.0139-0.3969zM21.2639 30.5782c-36e-4 0.0872-72e-4 0.1731-0.01 0.2582-15e-4 0.0431-27e-4 0.0864-36e-4 0.1288" />
            <path stroke-width="0.266667" stroke="currentColor" d="M8.5524 20.7711c-0.0995 0.1714-0.2005 0.3423-0.3024 0.513l0.052-0.0873c0.0841-0.1417 0.1678-0.2835 0.2504-0.4257zM8.6371 25.8962c0-0.1713 82e-4-0.5568 0.0172-1.0438-21e-4 0.1147-42e-4 0.2237-6e-3 0.3257-64e-4 0.331-0.0112 0.5871-0.0112 0.7181z" fill-rule="evenodd" />
            <path d="M74.2934 37.311v-1.0006h1.0155c0.3484 0 0.6471-0.0448 0.896-0.1344 0.2489-0.0796 0.4579-0.224 0.6272-0.433 0.1692-0.2091 0.3136-0.4978 0.4331-0.8662l2.6581-8.5418h1.0901l-2.7776 8.8554c-0.1593 0.5078-0.3783 0.9159-0.6571 1.2246-0.2787 0.3185-0.6122 0.5475-1.0005 0.6869s-0.8313 0.2091-1.329 0.2091zM76.8619 34.0406v-0.9408h1.4187v0.9408zM76.7276 34.0406 73.8604 26.335h1.1498l2.7627 7.7056z" />
            <path d="M68.8594 34.2346v-7.8998h0.896v3.3003h-0.0896c0-1.1548 0.2538-2.006 0.7616-2.5536 0.5077-0.5575 1.3042-0.8363 2.3893-0.8363h0.2539v1.0155h-0.463c-0.8561 0-1.5082 0.224-1.9562 0.672-0.448 0.438-0.672 1.0852-0.672 1.9413v4.3606z" />
            <path d="M64.9858 34.2347V23.3334h1.12v10.9013zM63.8359 24.2443v-0.9109h2.2699v0.9109z" />
            <path d="M59.2605 34.4884c-0.677 0-1.2644-0.1144-1.7622-0.3434-0.4977-0.239-0.9059-0.5526-1.2245-0.9408-0.3186-0.3982-0.5575-0.8413-0.7168-1.3291-0.1493-0.4878-0.224-0.9906-0.224-1.5083v-0.209c0-0.5078 0.0747-1.0055 0.224-1.4934 0.1593-0.4878 0.3982-0.9258 0.7168-1.3141s0.7168-0.6969 1.1947-0.9259c0.4878-0.2389 1.0553-0.3584 1.7024-0.3584 0.8263 0 1.5132 0.1842 2.0608 0.5526 0.5575 0.3683 0.9756 0.8412 1.2544 1.4186 0.2787 0.5675 0.4181 1.1798 0.4181 1.8368v0.5824h-7.0635v-0.8661h6.287l-0.2838 0.4331c0-0.5874-0.1045-1.1001-0.3136-1.5382-0.1991-0.448-0.4977-0.7964-0.896-1.0453-0.3882-0.2588-0.876-0.3883-1.4634-0.3883-0.6173 0-1.13 0.1444-1.5382 0.4331-0.4081 0.2887-0.7168 0.672-0.9258 1.1499-0.1991 0.4778-0.2987 1.0204-0.2987 1.6277 0 0.5973 0.0996 1.1449 0.2987 1.6427 0.209 0.4878 0.5226 0.8761 0.9408 1.1648 0.4281 0.2887 0.9657 0.433 1.6128 0.433 0.6869 0 1.2444-0.1543 1.6725-0.4629 0.4281-0.3186 0.6919-0.6919 0.7915-1.12h1.0453c-0.0995 0.5277-0.3086 0.9856-0.6272 1.3739-0.3186 0.3783-0.7218 0.672-1.2096 0.881-0.4878 0.2091-1.0453 0.3136-1.6725 0.3136z" />
            <path d="M38.9118 35.1275c-0.6769 0-1.2643-0.1145-1.7621-0.3435-0.4978-0.2389-0.9059-0.5525-1.2245-0.9408-0.3186-0.3982-0.5575-0.8412-0.7168-1.3291-0.1494-0.4878-0.224-0.9905-0.224-1.5082v-0.2091c0-0.5077 0.0746-1.0055 0.224-1.4933 0.1593-0.4878 0.3982-0.9259 0.7168-1.3142 0.3186-0.3882 0.7168-0.6968 1.1946-0.9258 0.4879-0.239 1.0553-0.3584 1.7024-0.3584 0.8264 0 1.5133 0.1842 2.0608 0.5525 0.5576 0.3684 0.9757 0.8413 1.2544 1.4187 0.2788 0.5674 0.4182 1.1797 0.4182 1.8368v0.5824h-7.0635v-0.8662h6.2869l-0.2837 0.4331c0-0.5874-0.1045-1.1001-0.3136-1.5381-0.1991-0.448-0.4978-0.7965-0.896-1.0454-0.3883-0.2588-0.8761-0.3882-1.4635-0.3882-0.6172 0-1.1299 0.1443-1.5381 0.433-0.4082 0.2888-0.7168 0.672-0.9259 1.1499-0.1991 0.4779-0.2986 1.0205-0.2986 1.6277 0 0.5974 0.0995 1.1449 0.2986 1.6427 0.2091 0.4878 0.5227 0.8761 0.9408 1.1648 0.4281 0.2887 0.9657 0.4331 1.6128 0.4331 0.687 0 1.2445-0.1543 1.6726-0.463 0.4281-0.3185 0.6919-0.6919 0.7914-1.12h1.0454c-0.0996 0.5277-0.3086 0.9856-0.6272 1.3739-0.3186 0.3783-0.7218 0.672-1.2096 0.8811-0.4878 0.209-1.0454 0.3136-1.6726 0.3136z" />
            <path d="M29.6885 37.9052v-1.0006h0.896c0.3882 0 0.6819-0.1144 0.881-0.3434 0.2091-0.219 0.3136-0.5376 0.3136-0.9558V26.974h1.0752v8.4224c0 0.6172-0.0846 1.11-0.2538 1.4784-0.1593 0.3683-0.4182 0.6322-0.7766 0.7914-0.3584 0.1593-0.8362 0.239-1.4336 0.239zM30.4949 27.87v-0.896h2.3594v0.896zM31.9882 25.3761c-0.2688 0-0.4729-0.0697-0.6123-0.2091-0.1294-0.1493-0.1941-0.3335-0.1941-0.5525s0.0647-0.3982 0.1941-0.5376c0.1394-0.1493 0.3435-0.224 0.6123-0.224s0.4679 0.0747 0.5973 0.224c0.1295 0.1394 0.1942 0.3186 0.1942 0.5376s-0.0647 0.4032-0.1942 0.5525c-0.1294 0.1394-0.3285 0.2091-0.5973 0.2091z" />
            <path d="M104.18 22.4042c-0.677 0-1.264-0.1145-1.762-0.3435-0.498-0.2389-0.906-0.5525-1.224-0.9408-0.319-0.3982-0.558-0.8412-0.717-1.329-0.149-0.4878-0.224-0.9906-0.224-1.5083v-0.2091c0-0.5077 0.075-1.0055 0.224-1.4933 0.159-0.4878 0.398-0.9259 0.717-1.3141 0.318-0.3883 0.717-0.6969 1.194-0.9259 0.488-0.2389 1.056-0.3584 1.703-0.3584 0.826 0 1.513 0.1842 2.061 0.5525 0.557 0.3684 0.975 0.8413 1.254 1.4187 0.279 0.5675 0.418 1.1797 0.418 1.8368v0.5824h-7.063v-0.8661h6.287l-0.284 0.433c0-0.5873-0.105-1.1-0.314-1.5381-0.199-0.448-0.498-0.7964-0.896-1.0453-0.388-0.2589-0.876-0.3883-1.463-0.3883-0.617 0-1.13 0.1444-1.538 0.4331-0.409 0.2887-0.717 0.672-0.926 1.1498-0.199 0.4779-0.299 1.0205-0.299 1.6278 0 0.5973 0.1 1.1449 0.299 1.6426 0.209 0.4879 0.522 0.8761 0.941 1.1648 0.428 0.2888 0.965 0.4331 1.612 0.4331 0.687 0 1.245-0.1543 1.673-0.4629 0.428-0.3186 0.692-0.6919 0.791-1.12h1.046c-0.1 0.5276-0.309 0.9856-0.627 1.3738-0.319 0.3784-0.722 0.672-1.21 0.8811s-1.045 0.3136-1.673 0.3136z" />
            <path d="M94.0621 22.4041c-0.5775 0-1.1051-0.1045-1.583-0.3136-0.4679-0.219-0.8761-0.5177-1.2245-0.896-0.3385-0.3883-0.6023-0.8263-0.7915-1.3141-0.1792-0.4978-0.2688-1.0255-0.2688-1.583v-0.209c0-0.5376 0.0896-1.0503 0.2688-1.5382 0.1792-0.4977 0.4331-0.9358 0.7616-1.3141 0.3385-0.3883 0.7417-0.6919 1.2096-0.9109 0.4779-0.229 1.0105-0.3435 1.5979-0.3435 0.667 0 1.2544 0.1444 1.7621 0.4331 0.5078 0.2887 0.9159 0.7068 1.2246 1.2544 0.3086 0.5376 0.4729 1.1996 0.4928 1.9861l-0.4928-0.9259v-5.4805h1.12v10.9013h-0.896v-3.5093h0.3584c-0.0199 0.8263-0.1942 1.5232-0.5227 2.0907-0.3186 0.5575-0.7417 0.9756-1.2693 1.2544-0.5177 0.2787-1.1001 0.4181-1.7472 0.4181zM94.2114 21.4185c0.5376 0 1.0204-0.1195 1.4485-0.3584 0.4381-0.2389 0.7815-0.5774 1.0304-1.0155 0.2489-0.448 0.3734-0.9607 0.3734-1.5381v-0.7168c0-0.5575-0.1245-1.0453-0.3734-1.4635-0.2489-0.4281-0.5923-0.7616-1.0304-1.0005-0.4281-0.2389-0.9159-0.3584-1.4634-0.3584-0.5874 0-1.1001 0.1444-1.5382 0.4331-0.4281 0.2787-0.7616 0.662-1.0005 1.1498-0.229 0.4879-0.3435 1.0354-0.3435 1.6427 0 0.6272 0.1195 1.1847 0.3584 1.6725 0.239 0.4879 0.5775 0.8711 1.0155 1.1499 0.438 0.2688 0.9458 0.4032 1.5232 0.4032z" />
            <path d="M87.2767 22.1503v-2.3744h-0.1792v-2.8074c0-0.5874-0.1543-1.0354-0.4629-1.344-0.3086-0.3186-0.7865-0.4779-1.4336-0.4779-0.2987 0-0.6023 5e-3-0.9109 0.0149-0.2987 0.01-0.5874 0.0249-0.8662 0.0448-0.2688 0.01-0.5077 0.0249-0.7168 0.0448v-0.9856c0.219-0.0199 0.443-0.0398 0.672-0.0597s0.463-0.0299 0.7019-0.0299c0.2489-99e-4 0.4878-0.0149 0.7168-0.0149 0.8064 0 1.4535 0.0996 1.9413 0.2987 0.4978 0.1991 0.8612 0.5127 1.0902 0.9408 0.2289 0.4181 0.3434 0.9756 0.3434 1.6725v5.0773zM84.6036 22.3594c-0.5575 0-1.0503-0.0995-1.4784-0.2987-0.428-0.1991-0.7616-0.4878-1.0005-0.8661-0.229-0.3783-0.3435-0.8363-0.3435-1.3739 0-0.5276 0.1195-0.9756 0.3584-1.344 0.2489-0.3683 0.6024-0.6471 1.0603-0.8362 0.4679-0.1991 1.0304-0.2987 1.6875-0.2987h2.3147v0.8512h-2.3894c-0.6272 0-1.11 0.1543-1.4485 0.4629-0.3285 0.2987-0.4928 0.692-0.4928 1.1798 0 0.4978 0.1742 0.896 0.5226 1.1946 0.3485 0.2888 0.8214 0.4331 1.4187 0.4331 0.3684 0 0.7218-0.0647 1.0603-0.1941 0.3385-0.1394 0.6222-0.3684 0.8512-0.687 0.229-0.3285 0.3534-0.7765 0.3733-1.344l0.3286 0.463c-0.0399 0.5874-0.1792 1.0802-0.4182 1.4784-0.2389 0.3882-0.5625 0.6819-0.9707 0.881-0.4081 0.1992-0.886 0.2987-1.4336 0.2987z" />
            <path d="M68.2539 22.1503v-7.9147h0.896v3.3301h-0.1792c0-0.7267 0.0996-1.3539 0.2987-1.8816 0.209-0.5276 0.5177-0.9358 0.9258-1.2245 0.4082-0.2987 0.9259-0.448 1.5531-0.448h0.0448c0.6272 0 1.1449 0.1444 1.5531 0.4331s0.7118 0.6969 0.9109 1.2245 0.2987 1.1598 0.2987 1.8965h-0.3584c0-0.7267 0.0995-1.3539 0.2986-1.8816 0.2091-0.5276 0.5177-0.9358 0.9259-1.2245 0.4181-0.2987 0.9408-0.448 1.568-0.448h0.0448c0.6272 0 1.1449 0.1444 1.5531 0.4331 0.4181 0.2887 0.7267 0.6969 0.9258 1.2245 0.2091 0.5276 0.3136 1.1598 0.3136 1.8965v4.5846h-1.12v-4.8384c0-0.6969-0.1692-1.2495-0.5077-1.6576-0.3385-0.4082-0.8263-0.6123-1.4635-0.6123-0.657 0-1.1797 0.214-1.568 0.6421-0.3783 0.4182-0.5674 0.9856-0.5674 1.7024v4.7638h-1.12v-4.8384c0-0.6969-0.1693-1.2495-0.5078-1.6576-0.3384-0.4082-0.8263-0.6123-1.4634-0.6123-0.6571 0-1.1798 0.214-1.568 0.6421-0.3783 0.4182-0.5675 0.9856-0.5675 1.7024v4.7638z" />
            <path d="M61.4351 22.4041c-0.5774 0-1.1051-0.1045-1.5829-0.3136-0.4679-0.219-0.8761-0.5177-1.2246-0.896-0.3384-0.3883-0.6023-0.8263-0.7914-1.3141-0.1792-0.4978-0.2688-1.0255-0.2688-1.583v-0.209c0-0.5376 0.0896-1.0503 0.2688-1.5382 0.1792-0.4977 0.433-0.9358 0.7616-1.3141 0.3385-0.3883 0.7417-0.6919 1.2096-0.9109 0.4779-0.229 1.0105-0.3435 1.5979-0.3435 0.667 0 1.2544 0.1444 1.7621 0.4331s0.9159 0.7068 1.2245 1.2544c0.3086 0.5376 0.4729 1.1996 0.4928 1.9861l-0.4928-0.9259v-5.4805h1.12v10.9013h-0.896v-3.5093h0.3584c-0.0199 0.8263-0.1941 1.5232-0.5226 2.0907-0.3186 0.5575-0.7417 0.9756-1.2694 1.2544-0.5177 0.2787-1.1001 0.4181-1.7472 0.4181zM61.5844 21.4185c0.5376 0 1.0205-0.1195 1.4486-0.3584 0.438-0.2389 0.7815-0.5774 1.0304-1.0155 0.2489-0.448 0.3733-0.9607 0.3733-1.5381v-0.7168c0-0.5575-0.1244-1.0453-0.3733-1.4635-0.2489-0.4281-0.5924-0.7616-1.0304-1.0005-0.4281-0.2389-0.9159-0.3584-1.4635-0.3584-0.5874 0-1.1001 0.1444-1.5381 0.4331-0.4281 0.2787-0.7616 0.662-1.0006 1.1498-0.2289 0.4879-0.3434 1.0354-0.3434 1.6427 0 0.6272 0.1194 1.1847 0.3584 1.6725 0.2389 0.4879 0.5774 0.8711 1.0155 1.1499 0.438 0.2688 0.9457 0.4032 1.5231 0.4032z" />
            <path d="M48.8643 22.1503v-7.8998h0.896v3.3152h-0.1792c0-0.7367 0.1095-1.3689 0.3285-1.8965s0.5475-0.9358 0.9856-1.2245c0.438-0.2887 0.9906-0.4331 1.6576-0.4331h0.0448c0.9955 0 1.7372 0.3136 2.2251 0.9408 0.4878 0.6172 0.7317 1.4884 0.7317 2.6133v4.5846h-1.1051v-4.8235c0-0.6869-0.1891-1.2395-0.5674-1.6576-0.3784-0.4181-0.906-0.6272-1.583-0.6272-0.6969 0-1.2594 0.219-1.6874 0.6571-0.4182 0.4281-0.6272 0.9955-0.6272 1.7024v4.7488z" />
            <path d="M45.3197 22.1503v-2.3744h-0.1792v-2.8074c0-0.5874-0.1543-1.0354-0.4629-1.344-0.3087-0.3186-0.7865-0.4779-1.4336-0.4779-0.2987 0-0.6024 5e-3-0.911 0.0149-0.2986 0.01-0.5874 0.0249-0.8661 0.0448-0.2688 0.01-0.5077 0.0249-0.7168 0.0448v-0.9856c0.219-0.0199 0.443-0.0398 0.672-0.0597s0.4629-0.0299 0.7019-0.0299c0.2488-99e-4 0.4878-0.0149 0.7168-0.0149 0.8064 0 1.4535 0.0996 1.9413 0.2987 0.4978 0.1991 0.8611 0.5127 1.0901 0.9408 0.229 0.4181 0.3435 0.9756 0.3435 1.6725v5.0773zM42.6466 22.3594c-0.5575 0-1.0503-0.0995-1.4784-0.2987-0.4281-0.1991-0.7616-0.4878-1.0005-0.8661-0.229-0.3783-0.3435-0.8363-0.3435-1.3739 0-0.5276 0.1195-0.9756 0.3584-1.344 0.2489-0.3683 0.6023-0.6471 1.0603-0.8362 0.4679-0.1991 1.0304-0.2987 1.6875-0.2987h2.3146v0.8512h-2.3893c-0.6272 0-1.1101 0.1543-1.4485 0.4629-0.3286 0.2987-0.4928 0.692-0.4928 1.1798 0 0.4978 0.1742 0.896 0.5226 1.1946 0.3485 0.2888 0.8214 0.4331 1.4187 0.4331 0.3683 0 0.7218-0.0647 1.0603-0.1941 0.3384-0.1394 0.6222-0.3684 0.8512-0.687 0.2289-0.3285 0.3534-0.7765 0.3733-1.344l0.3285 0.463c-0.0398 0.5874-0.1792 1.0802-0.4181 1.4784-0.2389 0.3882-0.5625 0.6819-0.9707 0.881-0.4082 0.1992-0.886 0.2987-1.4336 0.2987z" />
            <path d="M31.1826 22.1502V11.2489h1.12v6.1675l-0.3285 0.2538c0-0.7367 0.1045-1.3788 0.3136-1.9264 0.219-0.5475 0.5426-0.9706 0.9707-1.2693 0.438-0.3086 0.9856-0.4629 1.6426-0.4629h0.0598c0.9557 0 1.6775 0.3136 2.1653 0.9408 0.4978 0.6272 0.7467 1.4983 0.7467 2.6133v4.5845h-1.1051v-4.8234c0-0.7069-0.1941-1.2644-0.5824-1.6726-0.3883-0.4081-0.9109-0.6122-1.568-0.6122-0.7069 0-1.2693 0.2289-1.6875 0.6869-0.4181 0.448-0.6272 1.0404-0.6272 1.7771v4.6442z" />
            <path d="M46.7302 34l1.5669-7.0997h1.456L51.5696 34h-0.9013l-1.8165-7.0581h0.3328L47.6038 34zM46.1339 34v-0.8458h1.2619V34zM45.8843 34l-2.1216-7.3354h0.9984L46.855 34zM50.904 34v-0.8458h1.2342V34zM51.4448 34l1.8304-7.3354h0.9568L52.36 34z" />
        </symbol>
        <symbol id="Facebook" viewBox="0 0 24 24" fill="none">
            <path fill="currentColor" d="M22 12.3038c0-5.5566-4.4771-10.0611-10-10.0611-5.5228 0-10 4.5045-10 10.0611 0 5.0217 3.6568 9.1841 8.4375 9.9389v-7.0306H7.8984l0-2.9083h2.5391v-2.2166c0-2.5216 1.493-3.9144 3.7771-3.9144 1.0942 0 2.2385 0.1965 2.2385 0.1965v2.476l-1.2609 0c-1.2422 0-1.6297 0.7756-1.6297 1.5713v1.8872h2.7734l-0.4433 2.9083h-2.3301v7.0306C18.3432 21.4879 22 17.3257 22 12.3038z" />
        </symbol>
        <symbol id="Instagram" viewBox="0 0 24 24" fill="currentColor">
            <path d="M11.9988 4.6209c2.4044 0 2.689 0.0107 3.6344 0.0529 0.8791 0.0388 1.3532 0.1861 1.6698 0.3093 0.4185 0.162 0.7205 0.3588 1.0332 0.6715 0.3166 0.3167 0.5096 0.6153 0.6749 1.0338 0.1232 0.3166 0.2705 0.7941 0.3093 1.6698 0.0422 0.9494 0.0529 1.234 0.0529 3.635 0 2.401-0.0107 2.6889-0.0529 3.6349-0.0388 0.8791-0.1861 1.3532-0.3093 1.6699-0.162 0.4184-0.3583 0.7204-0.6715 1.0331-0.3167 0.3167-0.6153 0.5096-1.0332 0.675-0.3166 0.1231-0.7947 0.2705-1.6698 0.3093-0.9494 0.0422-1.234 0.0529-3.635 0.0529-2.401 0-2.6889-0.0107-3.6349-0.0529-0.8791-0.0388-1.3532-0.1862-1.6699-0.3093-0.4184-0.162-0.7205-0.3583-1.0337-0.6716-0.3167-0.3166-0.5096-0.6153-0.6749-1.0332-0.1232-0.3166-0.2706-0.7947-0.3094-1.6698-0.0421-0.9494-0.0528-1.234-0.0528-3.635 0-2.4009 0.0107-2.6889 0.0528-3.6349 0.0388-0.8791 0.1862-1.3532 0.3094-1.6698C5.1502 6.2733 5.347 5.9713 5.6597 5.658 5.9764 5.3414 6.275 5.1485 6.6934 4.9831 7.0101 4.8599 7.4876 4.7126 8.3633 4.6738c0.9454-0.0422 1.2306-0.0529 3.6349-0.0529zM11.9988 3.0006c-2.4432 0-2.7486 0.0107-3.7086 0.0528-0.9561 0.0422-1.6136 0.1969-2.1828 0.4185-0.5939 0.2317-1.0967 0.5377-1.5956 1.0405C4.009 5.0118 3.703 5.514 3.4713 6.1046 3.2497 6.6777 3.0951 7.3312 3.0529 8.2874 3.0107 9.2508 3 9.5562 3 11.9994c0 2.4431 0.0107 2.7485 0.0529 3.7086 0.0421 0.9561 0.1968 1.6136 0.4184 2.1828 0.2323 0.5939 0.5377 1.0967 1.0405 1.5956 0.4989 0.4988 1.0017 0.8087 1.5922 1.0371 0.5731 0.2216 1.2267 0.3762 2.1828 0.4184 0.9595 0.0422 1.2655 0.0529 3.7086 0.0529 2.4432 0 2.7492-0.0107 3.7087-0.0529 0.9561-0.0422 1.6136-0.1968 2.1827-0.4184 0.5906-0.2284 1.0934-0.5377 1.5923-1.0371 0.4988-0.4995 0.8087-1.0017 1.0371-1.5923 0.2216-0.5731 0.3762-1.2266 0.4184-2.1827 0.0422-0.9595 0.0529-1.2655 0.0529-3.7087 0-2.4431-0.0107-2.7485-0.0529-3.7086-0.0422-0.9561-0.1968-1.6136-0.4184-2.1828-0.2216-0.5978-0.5276-1.1001-1.0298-1.5995-0.4989-0.4989-1.0017-0.8088-1.5923-1.0371-0.5731-0.2216-1.2266-0.3763-2.1827-0.4185C14.7485 3.0107 14.4425 3 11.9994 3z" />
            <path d="M11.9985 7.377C9.4468 7.377 7.376 9.4472 7.376 11.9995c0 2.5523 2.0703 4.6226 4.6225 4.6226 2.5523 0 4.6226-2.0703 4.6226-4.6226 0-2.5517-2.0703-4.6226-4.6226-4.6226zM11.9985 14.9978c-1.6557 0-2.9982-1.3425-2.9982-2.9983 0-1.6558 1.3425-2.9983 2.9982-2.9983 1.6558 0 2.9983 1.3425 2.9983 2.9983s-1.3425 2.9983-2.9983 2.9983z" />
            <path d="M17.8822 7.194c0 0.5962-0.4831 1.0793-1.0793 1.0793-0.5961 0-1.0793-0.4831-1.0793-1.0793 0-0.5961 0.4832-1.0793 1.0793-1.0793 0.5962 0 1.0793 0.4832 1.0793 1.0793z" />
        </symbol>
        <symbol id="X" viewBox="0 0 24 24" fill="none">
            <path fill="currentColor" d="M17.1761 4.2427l2.7601 0-6.0301 6.7774L21 20.2427h-5.5544l-4.3505-5.5934-4.9779 5.5934H3.3554l6.4498-7.2492L3 4.2427l5.6954 0 3.9325 5.1126zM16.2073 18.6181h1.5295L7.8644 5.782l-1.6412 0z" />
        </symbol>
        <symbol id="LinkedIn" viewBox="0 0 24 24" fill="none">
            <path fill="currentColor" d="M19.3125 3H4.6875C3.7594 3 3 3.7594 3 4.6875v14.625C3 20.2406 3.7594 21 4.6875 21h14.625C20.2406 21 21 20.2406 21 19.3125V4.6875C21 3.7594 20.2406 3 19.3125 3zM9.75 17.625H7.5V9.75h2.25zM8.625 8.625C8.0029 8.625 7.5 8.1221 7.5 7.5c0-0.6221 0.5029-1.125 1.125-1.125S9.75 6.8779 9.75 7.5c0 0.6221-0.5029 1.125-1.125 1.125zM17.625 17.625h-2.25v-4.5c0-0.6221-0.5029-1.125-1.125-1.125s-1.125 0.5029-1.125 1.125v4.5h-2.25V9.75h2.25v1.3956c0.4641-0.6362 1.1739-1.3956 1.9688-1.3956 1.3994 0 2.5312 1.2589 2.5312 2.8125z" />
        </symbol>
        <symbol id="Youtube" viewBox="0 0 24 24" fill="none">
            <path fill="currentColor" d="M21.5928 7.203c-0.1139-0.4226-0.3365-0.808-0.6456-1.1178-0.3091-0.3099-0.694-0.5333-1.1164-0.6482C18.2648 5.007 11.9998 5 11.9998 5c0 0-6.264-7e-3-7.831 0.404-0.422 0.1201-0.8061 0.3468-1.1154 0.6581-0.3093 0.3114-0.5333 0.697-0.6506 1.1199-0.413 1.566-0.417 4.814-0.417 4.814 0 0-4e-3 3.264 0.406 4.814 0.23 0.857 0.905 1.534 1.763 1.765 1.582 0.43 7.83 0.437 7.83 0.437s6.265 7e-3 7.831-0.403c0.4225-0.1147 0.8078-0.3376 1.1177-0.6468s0.5337-0.694 0.6493-1.1162c0.414-1.565 0.417-4.812 0.417-4.812s0.02-3.265-0.407-4.831zM9.9958 15.005l5e-3-6 5.207 3.005z" />
        </symbol>
    </defs>
</svg>