<svg style="position: absolute; width: 0; height: 0; overflow: hidden;" aria-hidden="true" version="1.1" xmlns="http://www.w3.org/2000/svg" xmlns:xlink="http://www.w3.org/1999/xlink">
    <defs>
        <symbol id="star-outline" viewBox="0 0 24 24" fill="none">
            <path stroke-width="2" stroke="currentColor" d="M12 1c0.0375 0 0.0716 0.0106 0.0986 0.0283 0.0231 0.0153 0.0582 0.0468 0.0869 0.1192l2.4346 6.123c0.3072 0.7721 1.0166 1.3293 1.8643 1.4004l6.3193 0.5303c0.0492 41e-4 0.0782 0.0198 0.1016 0.04 0.0283 0.0246 0.0601 0.0678 0.0791 0.1289 0.0391 0.1259 61e-4 0.2358-0.0752 0.3086l-4.8145 4.3135c-0.6221 0.5576-0.8808 1.4149-0.6972 2.2197l1.4716 6.4502c0.032 0.1403-0.021 0.2401-0.0957 0.2969-0.0381 0.0289-0.0735 0.0393-0.0976 0.041-0.0179 12e-4-0.0485-8e-4-0.0977-0.0322l-5.4101-3.4561c-0.7148-0.4567-1.6212-0.4567-2.336 0l-5.4101 3.4561C5.3727 22.9992 5.3421 23.0012 5.3242 23c-0.0241-17e-4-0.0595-0.0121-0.0976-0.041-0.0747-0.0568-0.1277-0.1566-0.0957-0.2969l1.4716-6.4502c0.1836-0.8047-0.075-1.6621-0.6972-2.2197L1.0908 9.6787C1.0095 9.6059 0.9765 9.496 1.0156 9.3701 1.0346 9.309 1.0664 9.2658 1.0947 9.2412 1.1181 9.221 1.147 9.2053 1.1963 9.2012l6.3193-0.5303c0.8477-0.0711 1.5571-0.6281 1.8643-1.4004l2.4346-6.123c0.0287-0.0724 0.0638-0.1039 0.0869-0.1192C11.9284 1.0106 11.9625 1 12 1z" />
        </symbol>
        <symbol id="x" viewBox="0 0 18 16" fill="none">
            <path fill="currentColor" d="M14.1761 0h2.7601l-6.0301 6.7774L18 16h-5.5544l-4.3505-5.5934L3.1172 16H0.3554l6.4498-7.2492L0 0h5.6955l3.9324 5.1126zM13.2073 14.3754h1.5295L4.8644 1.5393l-1.6412 0z" />
        </symbol>
        <symbol id="burger" viewBox="0 0 16 12" fill="none">
            <path fill="currentColor" d="M0 0h16v2H0zM0 5h16v2H0zM0 10h16v2H0z" />
        </symbol>
        <symbol id="close" viewBox="0 0 12 12" fill="none">
            <path fill="currentColor" d="M9.899 0 5.656 4.242 1.414 0 0 1.414 4.242 5.656 0 9.898l1.414 1.414 4.242-4.242 4.243 4.242 1.414-1.414-4.242-4.242 4.242-4.242z" />
        </symbol>
        <symbol id="youtube" viewBox="0 0 21 15" fill="none">
            <path fill="currentColor" d="M19.607 2.203c-0.1139-0.4226-0.3365-0.808-0.6456-1.1178-0.3092-0.3099-0.6941-0.5333-1.1164-0.6482C16.279 7e-3 10.014 0 10.014 0c0 0-6.264-7e-3-7.831 0.404-0.4221 0.1202-0.8062 0.3468-1.1154 0.6581C0.7583 1.3735 0.5343 1.7591 0.417 2.182 4e-3 3.748 0 6.996 0 6.996c0 0-4e-3 3.264 0.406 4.814 0.23 0.857 0.905 1.534 1.763 1.765 1.582 0.43 7.83 0.437 7.83 0.437s6.265 7e-3 7.831-0.403c0.4225-0.1147 0.8077-0.3376 1.1177-0.6468 0.3099-0.3092 0.5337-0.694 0.6493-1.1162 0.414-1.565 0.417-4.812 0.417-4.812 0 0 0.02-3.265-0.407-4.831zM8.01 10.005l5e-3-6 5.207 3.005z" />
        </symbol>
        <symbol id="linkedin" viewBox="0 0 18 18" fill="none">
            <path fill="currentColor" d="M16.3125 0H1.6875C0.7594 0 0 0.7594 0 1.6875v14.625C0 17.2406 0.7594 18 1.6875 18h14.625C17.2406 18 18 17.2406 18 16.3125V1.6875C18 0.7594 17.2406 0 16.3125 0zM6.75 14.625H4.5V6.75h2.25zM5.625 5.625C5.0029 5.625 4.5 5.1221 4.5 4.5c0-0.6221 0.5029-1.125 1.125-1.125S6.75 3.8779 6.75 4.5c0 0.6221-0.5029 1.125-1.125 1.125zM14.625 14.625h-2.25v-4.5C12.375 9.5029 11.8721 9 11.25 9s-1.125 0.5029-1.125 1.125v4.5h-2.25V6.75h2.25v1.3956C10.5891 7.5094 11.2989 6.75 12.0938 6.75c1.3994 0 2.5312 1.2589 2.5312 2.8125z" />
        </symbol>
        <symbol id="instagram" viewBox="0 0 24 24" fill="currentColor">
            <path d="M11.9988 4.6209c2.4044 0 2.689 0.0107 3.6344 0.0529 0.8791 0.0388 1.3532 0.1861 1.6698 0.3093 0.4185 0.162 0.7205 0.3588 1.0332 0.6715 0.3166 0.3167 0.5096 0.6153 0.6749 1.0338 0.1232 0.3166 0.2705 0.7941 0.3093 1.6698 0.0422 0.9494 0.0529 1.234 0.0529 3.635 0 2.401-0.0107 2.6889-0.0529 3.6349-0.0388 0.8791-0.1861 1.3532-0.3093 1.6699-0.162 0.4184-0.3583 0.7204-0.6715 1.0331-0.3167 0.3167-0.6153 0.5096-1.0332 0.675-0.3166 0.1231-0.7947 0.2705-1.6698 0.3093-0.9494 0.0422-1.234 0.0529-3.635 0.0529-2.401 0-2.6889-0.0107-3.6349-0.0529-0.8791-0.0388-1.3532-0.1862-1.6699-0.3093-0.4184-0.162-0.7205-0.3583-1.0337-0.6716-0.3167-0.3166-0.5096-0.6153-0.6749-1.0332-0.1232-0.3166-0.2706-0.7947-0.3094-1.6698-0.0421-0.9494-0.0528-1.234-0.0528-3.635 0-2.4009 0.0107-2.6889 0.0528-3.6349 0.0388-0.8791 0.1862-1.3532 0.3094-1.6698C5.1502 6.2733 5.347 5.9713 5.6597 5.658 5.9764 5.3414 6.275 5.1485 6.6934 4.9831 7.0101 4.8599 7.4876 4.7126 8.3633 4.6738c0.9454-0.0422 1.2306-0.0529 3.6349-0.0529zM11.9988 3.0006c-2.4432 0-2.7486 0.0107-3.7086 0.0528-0.9561 0.0422-1.6136 0.1969-2.1828 0.4185-0.5939 0.2317-1.0967 0.5377-1.5956 1.0405C4.009 5.0118 3.703 5.514 3.4713 6.1046 3.2497 6.6777 3.0951 7.3312 3.0529 8.2874 3.0107 9.2508 3 9.5562 3 11.9994c0 2.4431 0.0107 2.7485 0.0529 3.7086 0.0421 0.9561 0.1968 1.6136 0.4184 2.1828 0.2323 0.5939 0.5377 1.0967 1.0405 1.5956 0.4989 0.4988 1.0017 0.8087 1.5922 1.0371 0.5731 0.2216 1.2267 0.3762 2.1828 0.4184 0.9595 0.0422 1.2655 0.0529 3.7086 0.0529 2.4432 0 2.7492-0.0107 3.7087-0.0529 0.9561-0.0422 1.6136-0.1968 2.1827-0.4184 0.5906-0.2284 1.0934-0.5377 1.5923-1.0371 0.4988-0.4995 0.8087-1.0017 1.0371-1.5923 0.2216-0.5731 0.3762-1.2266 0.4184-2.1827 0.0422-0.9595 0.0529-1.2655 0.0529-3.7087 0-2.4431-0.0107-2.7485-0.0529-3.7086-0.0422-0.9561-0.1968-1.6136-0.4184-2.1828-0.2216-0.5978-0.5276-1.1001-1.0298-1.5995-0.4989-0.4989-1.0017-0.8088-1.5923-1.0371-0.5731-0.2216-1.2266-0.3763-2.1827-0.4185C14.7485 3.0107 14.4425 3 11.9994 3z" />
            <path d="M11.9985 7.3767c-2.5517 0-4.6225 2.0703-4.6225 4.6226 0 2.5523 2.0703 4.6226 4.6225 4.6226 2.5523 0 4.6226-2.0703 4.6226-4.6226 0-2.5517-2.0703-4.6226-4.6226-4.6226zM11.9985 14.9976c-1.6557 0-2.9982-1.3425-2.9982-2.9983 0-1.6558 1.3425-2.9983 2.9982-2.9983 1.6558 0 2.9983 1.3425 2.9983 2.9983s-1.3425 2.9983-2.9983 2.9983z" />
            <path d="M17.8822 7.194c0 0.5962-0.4831 1.0793-1.0793 1.0793-0.5961 0-1.0793-0.4831-1.0793-1.0793 0-0.5961 0.4832-1.0793 1.0793-1.0793 0.5962 0 1.0793 0.4832 1.0793 1.0793z" />
        </symbol>
        <symbol id="facebook" viewBox="0 0 20 20" fill="none">
            <path fill="currentColor" d="M20 10.0611C20 4.5045 15.5229 0 10 0 4.4772 0 0 4.5045 0 10.0611 0 15.0828 3.6568 19.2452 8.4375 20v-7.0306H5.8984l0-2.9083h2.5391V7.8445c0-2.5215 1.493-3.9144 3.7771-3.9144 1.0942 0 2.2385 0.1965 2.2385 0.1965v2.476l-1.2609 0c-1.2422 0-1.6297 0.7756-1.6297 1.5713v1.8872h2.7734l-0.4433 2.9083h-2.3301V20C16.3432 19.2452 20 15.083 20 10.0611z" />
        </symbol>
        <symbol id="map" viewBox="0 0 32 32">
            <path d="M16 18.666c2.941 0 5.333-2.392 5.333-5.333s-2.392-5.333-5.333-5.333c-2.941 0-5.333 2.392-5.333 5.333s2.392 5.333 5.333 5.333zM16 10.666c1.471 0 2.667 1.196 2.667 2.667s-1.196 2.667-2.667 2.667c-1.471 0-2.667-1.196-2.667-2.667s1.196-2.667 2.667-2.667z"></path>
            <path d="M15.227 29.085c0.226 0.161 0.496 0.248 0.773 0.248s0.548-0.087 0.773-0.248c0.405-0.287 9.932-7.165 9.893-15.752 0-5.881-4.785-10.667-10.667-10.667s-10.667 4.785-10.667 10.66c-0.039 8.593 9.488 15.472 9.893 15.759zM16 5.333c4.412 0 8 3.588 8 8.007 0.028 5.917-5.851 11.231-8 12.973-2.148-1.744-8.028-7.059-8-12.98 0-4.412 3.588-8 8-8z"></path>
        </symbol>
        <symbol id="phone" viewBox="0 0 32 32">
            <path d="M23.61 16.391c-0.124-0.124-0.271-0.222-0.433-0.289s-0.335-0.102-0.51-0.102-0.349 0.035-0.51 0.102c-0.162 0.067-0.309 0.165-0.432 0.289l-2.125 2.125c-0.985-0.293-2.824-0.96-3.989-2.125s-1.832-3.004-2.125-3.989l2.125-2.125c0.124-0.124 0.222-0.271 0.289-0.432s0.102-0.335 0.102-0.51-0.034-0.348-0.102-0.51c-0.067-0.162-0.165-0.309-0.289-0.432l-5.333-5.333c-0.124-0.124-0.271-0.222-0.432-0.289s-0.335-0.102-0.51-0.102-0.348 0.035-0.51 0.102c-0.162 0.067-0.309 0.165-0.432 0.289l-3.616 3.616c-0.507 0.507-0.792 1.203-0.781 1.913 0.031 1.899 0.533 8.493 5.731 13.691s11.792 5.699 13.692 5.731h0.037c0.704 0 1.369-0.277 1.873-0.781l3.616-3.616c0.124-0.124 0.222-0.271 0.289-0.432s0.102-0.335 0.102-0.51-0.035-0.349-0.102-0.51c-0.067-0.162-0.165-0.309-0.289-0.432l-5.333-5.335zM23.44 25.34c-1.664-0.028-7.357-0.475-11.831-4.949-4.488-4.488-4.923-10.201-4.949-11.832l2.673-2.673 3.448 3.448-1.724 1.724c-0.157 0.157-0.272 0.35-0.335 0.562s-0.073 0.437-0.027 0.654c0.032 0.153 0.815 3.789 3.028 6.003s5.849 2.996 6.003 3.028c0.217 0.047 0.442 0.038 0.654-0.025s0.406-0.179 0.562-0.336l1.725-1.724 3.448 3.448-2.675 2.673z"></path>
        </symbol>
        <symbol id="envelope" viewBox="0 0 32 32">
            <path d="M26.667 5.333h-21.333c-1.471 0-2.667 1.196-2.667 2.667v16c0 1.471 1.196 2.667 2.667 2.667h21.333c1.471 0 2.667-1.196 2.667-2.667v-16c0-1.471-1.196-2.667-2.667-2.667zM26.667 8v0.681l-10.667 8.297-10.667-8.296v-0.683h21.333zM5.333 24v-11.941l9.848 7.66c0.233 0.183 0.522 0.283 0.819 0.283s0.585-0.1 0.819-0.283l9.848-7.66 0.003 11.941h-21.336z"></path>
        </symbol>
        <symbol id="book" viewBox="0 0 18 20" fill="currentColor">
            <path d="M3 20h15v-2H3.012C2.55 17.988 2 17.805 2 17s0.55-0.988 1.012-1H18V2c0-1.103-0.897-2-2-2H3C1.794 0 0 0.799 0 3v14c0 2.201 1.794 3 3 3zM2 3c0-0.805 0.55-0.988 1-1h13v12H2z" />
            <path d="M5 4h9v2H5z" />
        </symbol>
        <symbol id="leaf" viewBox="0 0 19 20" fill="none">
            <path fill="currentColor" d="M18.7235 0l-1.2 0.4c-2.0566 0.7145-4.2527 0.9338-6.41 0.64-2.2669-0.3518-4.5871-0.0392-6.68 0.9C3.324 2.4125 2.3503 3.1549 1.601 4.0998 0.8517 5.0447 0.3507 6.162 0.1435 7.35c-0.2107 1.1424-0.1892 2.3156 0.0634 3.4496 0.2525 1.1339 0.7309 2.2054 1.4066 3.1504-0.06 0.21-0.12 0.42-0.17 0.63-0.4062 1.727-0.6075 3.4959-0.6 5.27h2c0.094-1.4522 0.2912-2.8958 0.59-4.32 1.3874 0.7492 2.9433 1.1313 4.52 1.11 1.4705-1e-3 2.9258-0.2968 4.28-0.87 7.61-3.25 6.61-14.06 6.61-14.51zM11.4535 13.93c-2.61 1.11-5.73 0.92-7.48-0.45 0.2958-0.989 0.7017-1.9416 1.21-2.84 0.3952-0.6466 0.8614-1.247 1.39-1.79 0.5401-0.5488 1.1484-1.026 1.81-1.42 1.3671-0.8175 2.8832-1.3546 4.46-1.58v-1c-1.8142-0.0628-3.6173 0.3074-5.26 1.08-1.6796 0.8195-3.104 2.0814-4.12 3.65-0.3768 0.5991-0.711 1.224-1 1.87C2 10.2644 1.8686 8.9748 2.0835 7.72 2.2243 6.8415 2.5864 6.0134 3.1357 5.3136 3.6851 4.6138 4.4036 4.0653 5.2235 3.72c1.1956-0.5588 2.5002-0.8457 3.82-0.84 0.62 0 1.23 0.06 1.87 0.11 2.0043 0.2586 4.0393 0.1399 6-0.35-0.07 2.76-0.57 9.21-5.46 11.29z" />
        </symbol>
        <symbol id="donate-heart" viewBox="0 0 20 19" fill="none">
            <path fill="currentColor" d="M2 19h9.62c0.5771 3e-4 1.1474-0.1244 1.6716-0.3656 0.5243-0.2411 0.9901-0.593 1.3654-1.0314l5.102-5.952c0.1068-0.1244 0.1814-0.2732 0.2172-0.4332 0.0358-0.1601 0.0317-0.3265-0.012-0.4845-0.0436-0.1581-0.1255-0.303-0.2384-0.422s-0.2532-0.2084-0.4088-0.2603l-1.968-0.656c-0.4756-0.1546-0.9821-0.1896-1.4745-0.1018-0.4924 0.0877-0.9555 0.2954-1.3485 0.6048l-3.185 2.547-0.617-1.235c-0.3305-0.6657-0.8409-1.2256-1.4733-1.6162C8.6184 9.2033 7.8893 8.9975 7.146 9L2 9c-1.103 0-2 0.897-2 2v6c0 1.103 0.897 2 2 2zM2 11h5.146c0.763 0 1.448 0.423 1.789 1.105L9.382 13H5v2h6.014c0.1539-2e-3 0.3051-0.0397 0.442-0.11l3e-3-1e-3 4e-3-2e-3h3e-3l2e-3-1e-3h4e-3l1e-3-1e-3c9e-3 3e-3 3e-3-1e-3 3e-3-1e-3 0.01 0 2e-3-1e-3 2e-3-1e-3h1e-3l2e-3-1e-3 3e-3-1e-3 4e-3-2e-3 3e-3-1e-3 2e-3-1e-3c3e-3 0 2e-3-1e-3 2e-3-1e-3l3e-3-2e-3 4e-3-2e-3 3e-3-1e-3 2e-3-1e-3h1e-3l2e-3-1e-3 3e-3-1e-3 2e-3-1e-3c9e-3-1e-3 3e-3-1e-3 3e-3-1e-3l2e-3-1e-3c0.0385-0.0232 0.0753-0.0493 0.11-0.078l4.146-3.317c0.262-0.208 0.623-0.273 0.94-0.167l0.557 0.186-4.133 4.823c-0.1901 0.2159-0.424 0.3889-0.686 0.5075-0.2621 0.1186-0.5463 0.1801-0.834 0.1805H2zM13.983 0C13.82 2e-3 12.977 0.039 12 0.705c-0.951-0.648-1.774-0.7-1.968-0.704L10.002 0 9.998 0C9.197 0 8.443 0.313 7.879 0.878 7.313 1.445 7 2.198 7 3 7 3.802 7.313 4.555 7.861 5.104l3.414 3.586c0.0939 0.0975 0.2066 0.1751 0.3312 0.228 0.1246 0.0529 0.2586 0.0802 0.394 0.0801 0.1354-1e-4 0.2694-0.0275 0.3939-0.0806 0.1246-0.0532 0.2371-0.1309 0.3309-0.2285l3.396-3.568C16.688 4.555 17 3.802 17 3c0-0.802-0.313-1.555-0.878-2.121-0.2777-0.2794-0.608-0.501-0.9719-0.6519C14.7862 0.0762 14.3959-1e-3 14.002 0zM15 3c0 0.267-0.104 0.518-0.311 0.725L12 6.55 9.293 3.707C9.104 3.518 9 3.267 9 3 9 2.733 9.104 2.482 9.294 2.292 9.4748 2.1081 9.7211 2.0031 9.979 2c0.025 1e-3 0.502 0.032 1.067 0.485 0.081 0.065 0.163 0.139 0.247 0.222L12 3.414l0.707-0.707c0.084-0.083 0.166-0.157 0.247-0.222 0.529-0.425 0.976-0.478 1.052-0.484 0.1303 0 0.2594 0.0258 0.3797 0.0759s0.2295 0.1236 0.3213 0.2161C14.896 2.482 15 2.733 15 3z" />
        </symbol>
        <symbol id="star-fiiled" viewBox="0 0 24 24" fill="none">
            <path fill="currentColor" d="M10.8851 0.778c0.4125-1.0373 1.8174-1.0373 2.2299 0l2.4345 6.1229c0.174 0.4373 0.5672 0.7361 1.0185 0.774l6.3193 0.5299c1.0706 0.0898 1.5048 1.4874 0.689 2.2183l-4.8145 4.314c-0.3439 0.3082-0.4942 0.7917-0.3891 1.2524l1.4709 6.4503c0.2492 1.0929-0.8873 1.9567-1.804 1.3711l-5.4101-3.4567c-0.3865-0.2469-0.8725-0.2469-1.2589 0l-5.4102 3.4567c-0.9167 0.5856-2.0532-0.2782-1.804-1.3711l1.4709-6.4503c0.1051-0.4607-0.0451-0.9442-0.389-1.2524l-4.8146-4.314c-0.8158-0.7309-0.3816-2.1285 0.689-2.2183l6.3193-0.53c0.4514-0.0378 0.8446-0.3366 1.0185-0.774z" />
        </symbol>
        <symbol id="icon-logo" viewBox="0 0 75 32">
            <path d="M16.441 10.036l0.134 0.112 0.098 0.082 0.434 0.361 0.001 10.078c-2.31 1.907-4.634 3.797-6.972 5.669-0.148-0.015-4-3.182-5.956-4.791l-0.055-0.045c-0.501-0.412-0.87-0.715-1.006-0.825l-0.007-10.080 6.965-5.707c0.227 0.032 4.575 3.656 6.364 5.147zM13.433 12.095l-0.008-0.013-0.001-0.002-0.011-0.018c-1.145-1.852-3.15-5.096-3.322-5.22l-4.042 6.44 0.009 4.47 0.813 1.334c0.356 0.051 0.715 0.109 1.075 0.167 0.73 0.118 1.466 0.237 2.191 0.297l0.967-0.145c0.747-0.113 1.494-0.226 2.242-0.326l0.815-1.266-0-4.543c-0.097-0.152-0.369-0.592-0.729-1.175zM14.464 13.811c-0.027 0.824-0.021 1.653-0.014 2.481 0.003 0.336 0.006 0.673 0.006 1.008l0.43-0.698c0.125-0.198 0.248-0.396 0.371-0.595l0.141-0.229 0.136-0.222c-0.034-0.056-0.068-0.114-0.101-0.172-0.068-0.117-0.135-0.238-0.204-0.359-0.237-0.422-0.481-0.858-0.765-1.214zM11.239 6.148c-0.334-0.294-0.744-0.654-0.99-0.758l0.007 0.331c0.006 0.26 0.012 0.52 0.014 0.779 1.284 2.072 2.578 4.137 3.883 6.196-0-0.063-0.003-0.162-0.006-0.284v-0.020c-0.016-0.58-0.044-1.635 0.104-1.79 0.004-0.004 0.008-0.008 0.013-0.012l0.011-0.009 0.011-0.009 0.13 0.057c0.101 0.458 0.076 1.173 0.055 1.81l-0 0.009-0.001 0.039c-0.009 0.265-0.017 0.516-0.014 0.726 0.172 0.287 0.348 0.573 0.524 0.858 0.306 0.496 0.612 0.993 0.896 1.499l-1.418 2.277 0.003 1.459v1.124l2.352 0.001-0.005-9.697c-1.724-1.45-3.464-2.879-5.222-4.288l-0.054-0.044-0.050-0.042c-0.073-0.062-0.155-0.135-0.243-0.212zM9.911 5.407c-0.735 0.604-1.478 1.203-2.22 1.802-1.439 1.161-2.879 2.324-4.276 3.529l-0.009 9.689 2.344 0.003 0.005-1.296 0.006-1.309-1.396-2.289c0.458-0.777 0.923-1.55 1.393-2.32-0-0.041-0.002-0.095-0.003-0.16l-0.006-0.222c-0.021-0.719-0.061-2.039 0.076-2.253l0.091-0.017c0.086 0.065 0.12 0.105 0.134 0.217 0.053 0.398 0.031 0.906 0.011 1.379l-0.008 0.19-0.004 0.097c-0.004 0.106-0.007 0.208-0.008 0.305l3.923-6.26c0.001-0.080 0.007-0.174 0.013-0.273 0.016-0.27 0.035-0.581-0.033-0.783l-0.034-0.029zM8.405 19.615c-0.441-0.079-0.882-0.157-1.32-0.193l0.339 0.544c0.904 1.451 1.81 2.906 2.675 4.378 0.438-0.707 0.872-1.417 1.301-2.129 0.194-0.313 0.387-0.627 0.579-0.942 0.381-0.622 0.763-1.245 1.157-1.859-0.245 0.035-0.538 0.085-0.849 0.139-0.772 0.133-1.659 0.286-2.239 0.271-0.545-0.015-1.094-0.113-1.643-0.211zM6.044 19.265c0.001 0.484 0.010 0.97-0.003 1.454-0.237 0-0.474 0.001-0.71 0.001-0.561 0.002-1.122 0.003-1.683-0.004l6.32 5.159c-0.005-0.233-0.009-0.465-0.010-0.698-0.001-0.162-0.002-0.325-0.001-0.487-0.614-1.042-1.249-2.071-1.883-3.1l-0.012-0.020-0.002-0.003c-0.453-0.734-0.906-1.468-1.351-2.206l-0.664-0.096zM13.997 19.287l-0.025 0.002-0.46 0.071-3.251 5.291-0.013 1.22c0.21-0.171 0.419-0.341 0.629-0.511 0.263-0.212 0.527-0.424 0.791-0.635 1.645-1.32 3.277-2.656 4.895-4.009l-2.4 0.003c0.001-0.107 0.006-0.219 0.011-0.333l0.001-0.010c0.015-0.354 0.030-0.728-0.041-1.051-0.063-0.047-0.071-0.046-0.12-0.040l-0.019 0.002zM5.76 17.156c0.001-0.093 0.004-0.22 0.006-0.37 0.018-0.934 0.052-2.761-0.064-2.938-0.055 0.095-0.111 0.189-0.167 0.284l-0.17 0.285c-0.223 0.372-0.445 0.744-0.648 1.125 0.071 0.118 0.144 0.236 0.218 0.354 0.164 0.265 0.329 0.531 0.477 0.802l0.347 0.567 0.001-0.109zM13.847 18.966c0.136-0.016 0.206-0.039 0.378-0.102 0.031-0.143 0.044-0.381 0.032-0.556-0.137 0.169-0.244 0.36-0.35 0.55l-0.060 0.108zM6.061 18.367c-0.013 0.175 0 0.353 0.032 0.556 0.211 0.067 0.249 0.083 0.289 0.091 0.021 0.004 0.042 0.006 0.089 0.011-0.127-0.225-0.247-0.457-0.41-0.658z"></path>
            <path d="M13.433 12.095c-0.143-0.231-0.299-0.484-0.464-0.751 0.162 0.262 0.316 0.511 0.456 0.738l0.008 0.013z"></path>
            <path d="M14.154 12.695c-0-0.066-0.003-0.169-0.007-0.297v0.006c0.003 0.124 0.006 0.226 0.007 0.29z"></path>
            <path d="M6.052 12.377c-0.005 0.131-0.009 0.257-0.010 0.374 0.001-0.097 0.004-0.199 0.008-0.305 0.001-0.023 0.002-0.047 0.003-0.070zM5.758 13.217c-0.001-0.081-0.005-0.215-0.010-0.383l0.006 0.222c0.002 0.065 0.003 0.12 0.003 0.16z"></path>
            <path d="M14.167 20.65c0.002-0.089 0.006-0.181 0.010-0.274l-0.001 0.010c-0.004 0.090-0.007 0.178-0.009 0.265z"></path>
            <path d="M5.702 13.847c-0.066 0.114-0.134 0.228-0.202 0.342l0.035-0.058c0.056-0.095 0.112-0.189 0.167-0.284zM5.758 17.264c0-0.114 0.005-0.371 0.011-0.696-0.001 0.076-0.003 0.149-0.004 0.217-0.004 0.221-0.007 0.391-0.007 0.479z"></path>
            <path d="M49.529 24.874v-0.667h0.677c0.232 0 0.431-0.030 0.597-0.090 0.166-0.053 0.305-0.149 0.418-0.289s0.209-0.332 0.289-0.577l1.772-5.695h0.727l-1.852 5.904c-0.106 0.338-0.252 0.611-0.438 0.816-0.186 0.212-0.408 0.365-0.667 0.458s-0.554 0.139-0.886 0.139h-0.637zM51.241 22.694v-0.627h0.946v0.627h-0.946zM51.151 22.694l-1.911-5.137h0.767l1.842 5.137h-0.697z"></path>
            <path d="M45.906 22.823v-5.267h0.597v2.2h-0.060c0-0.77 0.169-1.337 0.508-1.702 0.339-0.372 0.87-0.558 1.593-0.558h0.169v0.677h-0.309c-0.571 0-1.005 0.149-1.304 0.448-0.299 0.292-0.448 0.723-0.448 1.294v2.907h-0.747z"></path>
            <path d="M43.323 22.823v-7.268h0.747v7.268h-0.747zM42.557 16.163v-0.607h1.513v0.607h-1.513z"></path>
            <path d="M39.507 22.992c-0.451 0-0.843-0.076-1.175-0.229-0.332-0.159-0.604-0.368-0.816-0.627-0.212-0.265-0.372-0.561-0.478-0.886-0.1-0.325-0.149-0.66-0.149-1.006v-0.139c0-0.338 0.050-0.67 0.149-0.996 0.106-0.325 0.266-0.617 0.478-0.876s0.478-0.465 0.796-0.617c0.325-0.159 0.704-0.239 1.135-0.239 0.551 0 1.009 0.123 1.374 0.368 0.372 0.246 0.65 0.561 0.836 0.946 0.186 0.378 0.279 0.787 0.279 1.225v0.388h-4.709v-0.577h4.191l-0.189 0.289c0-0.392-0.070-0.733-0.209-1.025-0.133-0.299-0.332-0.531-0.597-0.697-0.259-0.173-0.584-0.259-0.976-0.259-0.411 0-0.753 0.096-1.025 0.289s-0.478 0.448-0.617 0.767c-0.133 0.319-0.199 0.68-0.199 1.085 0 0.398 0.066 0.763 0.199 1.095 0.139 0.325 0.348 0.584 0.627 0.777 0.285 0.193 0.644 0.289 1.075 0.289 0.458 0 0.83-0.103 1.115-0.309 0.285-0.212 0.461-0.461 0.528-0.747h0.697c-0.066 0.352-0.206 0.657-0.418 0.916-0.212 0.252-0.481 0.448-0.806 0.587s-0.697 0.209-1.115 0.209z"></path>
            <path d="M25.941 23.418c-0.451 0-0.843-0.076-1.175-0.229-0.332-0.159-0.604-0.368-0.816-0.627-0.212-0.265-0.372-0.561-0.478-0.886-0.1-0.325-0.149-0.66-0.149-1.006v-0.139c0-0.338 0.050-0.67 0.149-0.996 0.106-0.325 0.265-0.617 0.478-0.876s0.478-0.465 0.796-0.617c0.325-0.159 0.704-0.239 1.135-0.239 0.551 0 1.009 0.123 1.374 0.368 0.372 0.246 0.65 0.561 0.836 0.946 0.186 0.378 0.279 0.787 0.279 1.225v0.388h-4.709v-0.577h4.191l-0.189 0.289c0-0.392-0.070-0.733-0.209-1.025-0.133-0.299-0.332-0.531-0.597-0.697-0.259-0.173-0.584-0.259-0.976-0.259-0.411 0-0.753 0.096-1.025 0.289s-0.478 0.448-0.617 0.767c-0.133 0.319-0.199 0.68-0.199 1.085 0 0.398 0.066 0.763 0.199 1.095 0.139 0.325 0.348 0.584 0.627 0.777 0.285 0.193 0.644 0.289 1.075 0.289 0.458 0 0.83-0.103 1.115-0.309 0.285-0.212 0.461-0.461 0.528-0.747h0.697c-0.066 0.352-0.206 0.657-0.418 0.916-0.212 0.252-0.481 0.448-0.806 0.587s-0.697 0.209-1.115 0.209z"></path>
            <path d="M19.792 25.27v-0.667h0.597c0.259 0 0.455-0.076 0.587-0.229 0.139-0.146 0.209-0.358 0.209-0.637v-5.754h0.717v5.615c0 0.411-0.056 0.74-0.169 0.986-0.106 0.246-0.279 0.421-0.518 0.528s-0.558 0.159-0.956 0.159h-0.468zM20.329 18.58v-0.597h1.573v0.597h-1.573zM21.325 16.917c-0.179 0-0.315-0.047-0.408-0.139-0.086-0.1-0.129-0.222-0.129-0.368s0.043-0.265 0.129-0.358c0.093-0.1 0.229-0.149 0.408-0.149s0.312 0.050 0.398 0.149c0.086 0.093 0.129 0.212 0.129 0.358s-0.043 0.269-0.129 0.368c-0.086 0.093-0.219 0.139-0.398 0.139z"></path>
            <path d="M69.453 14.936c-0.451 0-0.843-0.076-1.175-0.229-0.332-0.159-0.604-0.368-0.816-0.627-0.212-0.265-0.372-0.561-0.478-0.886-0.1-0.325-0.149-0.66-0.149-1.005v-0.139c0-0.338 0.050-0.67 0.149-0.996 0.106-0.325 0.265-0.617 0.478-0.876s0.478-0.465 0.796-0.617c0.325-0.159 0.703-0.239 1.135-0.239 0.551 0 1.009 0.123 1.374 0.368 0.372 0.246 0.65 0.561 0.836 0.946 0.186 0.378 0.279 0.787 0.279 1.225v0.388h-4.709v-0.577h4.191l-0.189 0.289c0-0.392-0.070-0.733-0.209-1.025-0.133-0.299-0.332-0.531-0.597-0.697-0.259-0.173-0.584-0.259-0.976-0.259-0.412 0-0.753 0.096-1.025 0.289s-0.478 0.448-0.617 0.767c-0.133 0.319-0.199 0.68-0.199 1.085 0 0.398 0.066 0.763 0.199 1.095 0.139 0.325 0.348 0.584 0.627 0.777 0.285 0.193 0.644 0.289 1.075 0.289 0.458 0 0.83-0.103 1.115-0.309 0.285-0.212 0.461-0.461 0.528-0.747h0.697c-0.066 0.352-0.206 0.657-0.418 0.916-0.212 0.252-0.481 0.448-0.806 0.587s-0.697 0.209-1.115 0.209z"></path>
            <path d="M62.707 14.936c-0.385 0-0.737-0.070-1.055-0.209-0.312-0.146-0.584-0.345-0.816-0.597-0.226-0.259-0.401-0.551-0.528-0.876-0.119-0.332-0.179-0.684-0.179-1.055v-0.139c0-0.358 0.060-0.7 0.179-1.025 0.119-0.332 0.289-0.624 0.508-0.876 0.226-0.259 0.495-0.461 0.806-0.607 0.319-0.153 0.674-0.229 1.065-0.229 0.445 0 0.836 0.096 1.175 0.289s0.611 0.471 0.816 0.836c0.206 0.358 0.315 0.8 0.329 1.324l-0.329-0.617v-3.654h0.747v7.268h-0.597v-2.34h0.239c-0.013 0.551-0.129 1.015-0.348 1.394-0.212 0.372-0.494 0.65-0.846 0.836-0.345 0.186-0.733 0.279-1.165 0.279zM62.807 14.279c0.358 0 0.68-0.080 0.966-0.239 0.292-0.159 0.521-0.385 0.687-0.677 0.166-0.299 0.249-0.641 0.249-1.025v-0.478c0-0.372-0.083-0.697-0.249-0.976-0.166-0.285-0.395-0.508-0.687-0.667-0.285-0.159-0.611-0.239-0.976-0.239-0.392 0-0.733 0.096-1.025 0.289-0.285 0.186-0.508 0.441-0.667 0.767-0.153 0.325-0.229 0.69-0.229 1.095 0 0.418 0.080 0.79 0.239 1.115s0.385 0.581 0.677 0.767c0.292 0.179 0.631 0.269 1.015 0.269z"></path>
            <path d="M58.184 14.767v-1.583h-0.119v-1.872c0-0.392-0.103-0.69-0.309-0.896-0.206-0.212-0.524-0.319-0.956-0.319-0.199 0-0.401 0.003-0.607 0.010-0.199 0.007-0.392 0.017-0.577 0.030-0.179 0.007-0.339 0.017-0.478 0.030v-0.657c0.146-0.013 0.295-0.027 0.448-0.040s0.309-0.020 0.468-0.020c0.166-0.007 0.325-0.010 0.478-0.010 0.538 0 0.969 0.066 1.294 0.199 0.332 0.133 0.574 0.342 0.727 0.627 0.153 0.279 0.229 0.65 0.229 1.115v3.385h-0.597zM56.402 14.906c-0.372 0-0.7-0.066-0.986-0.199s-0.508-0.325-0.667-0.577c-0.153-0.252-0.229-0.557-0.229-0.916 0-0.352 0.080-0.65 0.239-0.896 0.166-0.246 0.402-0.431 0.707-0.557 0.312-0.133 0.687-0.199 1.125-0.199h1.543v0.567h-1.593c-0.418 0-0.74 0.103-0.966 0.309-0.219 0.199-0.329 0.461-0.329 0.787 0 0.332 0.116 0.597 0.348 0.796 0.232 0.192 0.548 0.289 0.946 0.289 0.246 0 0.481-0.043 0.707-0.129 0.226-0.093 0.415-0.246 0.567-0.458 0.153-0.219 0.236-0.518 0.249-0.896l0.219 0.309c-0.026 0.392-0.119 0.72-0.279 0.986-0.159 0.259-0.375 0.455-0.647 0.587s-0.591 0.199-0.956 0.199z"></path>
            <path d="M45.502 14.767v-5.276h0.597v2.22h-0.119c0-0.485 0.066-0.903 0.199-1.254 0.139-0.352 0.345-0.624 0.617-0.816 0.272-0.199 0.617-0.299 1.035-0.299h0.030c0.418 0 0.763 0.096 1.035 0.289s0.474 0.465 0.607 0.816c0.133 0.352 0.199 0.773 0.199 1.264h-0.239c0-0.485 0.066-0.903 0.199-1.254 0.139-0.352 0.345-0.624 0.617-0.816 0.279-0.199 0.627-0.299 1.045-0.299h0.030c0.418 0 0.763 0.096 1.035 0.289 0.279 0.192 0.484 0.465 0.617 0.816 0.139 0.352 0.209 0.773 0.209 1.264v3.056h-0.747v-3.226c0-0.465-0.113-0.833-0.339-1.105s-0.551-0.408-0.976-0.408c-0.438 0-0.786 0.143-1.045 0.428-0.252 0.279-0.378 0.657-0.378 1.135v3.176h-0.747v-3.226c0-0.465-0.113-0.833-0.339-1.105s-0.551-0.408-0.976-0.408c-0.438 0-0.786 0.143-1.045 0.428-0.252 0.279-0.378 0.657-0.378 1.135v3.176h-0.747z"></path>
            <path d="M40.956 14.936c-0.385 0-0.737-0.070-1.055-0.209-0.312-0.146-0.584-0.345-0.816-0.597-0.226-0.259-0.401-0.551-0.528-0.876-0.119-0.332-0.179-0.684-0.179-1.055v-0.139c0-0.358 0.060-0.7 0.179-1.025 0.119-0.332 0.289-0.624 0.508-0.876 0.226-0.259 0.495-0.461 0.806-0.607 0.319-0.153 0.674-0.229 1.065-0.229 0.445 0 0.836 0.096 1.175 0.289s0.611 0.471 0.816 0.836c0.206 0.358 0.315 0.8 0.329 1.324l-0.329-0.617v-3.654h0.747v7.268h-0.597v-2.34h0.239c-0.013 0.551-0.129 1.015-0.348 1.394-0.212 0.372-0.495 0.65-0.846 0.836-0.345 0.186-0.733 0.279-1.165 0.279zM41.056 14.279c0.358 0 0.68-0.080 0.966-0.239 0.292-0.159 0.521-0.385 0.687-0.677 0.166-0.299 0.249-0.641 0.249-1.025v-0.478c0-0.372-0.083-0.697-0.249-0.976-0.166-0.285-0.395-0.508-0.687-0.667-0.285-0.159-0.611-0.239-0.976-0.239-0.392 0-0.733 0.096-1.025 0.289-0.285 0.186-0.508 0.441-0.667 0.767-0.153 0.325-0.229 0.69-0.229 1.095 0 0.418 0.080 0.79 0.239 1.115s0.385 0.581 0.677 0.767c0.292 0.179 0.63 0.269 1.015 0.269z"></path>
            <path d="M32.576 14.767v-5.266h0.597v2.21h-0.119c0-0.491 0.073-0.913 0.219-1.264s0.365-0.624 0.657-0.816c0.292-0.192 0.66-0.289 1.105-0.289h0.030c0.664 0 1.158 0.209 1.483 0.627 0.325 0.411 0.488 0.992 0.488 1.742v3.056h-0.737v-3.216c0-0.458-0.126-0.826-0.378-1.105s-0.604-0.418-1.055-0.418c-0.465 0-0.84 0.146-1.125 0.438-0.279 0.285-0.418 0.664-0.418 1.135v3.166h-0.747z"></path>
            <path d="M30.213 14.767v-1.583h-0.119v-1.872c0-0.392-0.103-0.69-0.309-0.896-0.206-0.212-0.524-0.319-0.956-0.319-0.199 0-0.402 0.003-0.607 0.010-0.199 0.007-0.392 0.017-0.577 0.030-0.179 0.007-0.338 0.017-0.478 0.030v-0.657c0.146-0.013 0.295-0.027 0.448-0.040s0.309-0.020 0.468-0.020c0.166-0.007 0.325-0.010 0.478-0.010 0.538 0 0.969 0.066 1.294 0.199 0.332 0.133 0.574 0.342 0.727 0.627 0.153 0.279 0.229 0.65 0.229 1.115v3.385h-0.597zM28.431 14.906c-0.372 0-0.7-0.066-0.986-0.199s-0.508-0.325-0.667-0.577c-0.153-0.252-0.229-0.557-0.229-0.916 0-0.352 0.080-0.65 0.239-0.896 0.166-0.246 0.401-0.431 0.707-0.557 0.312-0.133 0.687-0.199 1.125-0.199h1.543v0.567h-1.593c-0.418 0-0.74 0.103-0.966 0.309-0.219 0.199-0.329 0.461-0.329 0.787 0 0.332 0.116 0.597 0.348 0.796 0.232 0.192 0.548 0.289 0.946 0.289 0.245 0 0.481-0.043 0.707-0.129 0.226-0.093 0.415-0.246 0.567-0.458 0.153-0.219 0.236-0.518 0.249-0.896l0.219 0.309c-0.027 0.392-0.119 0.72-0.279 0.986-0.159 0.259-0.375 0.455-0.647 0.587s-0.591 0.199-0.956 0.199z"></path>
            <path d="M20.788 14.767v-7.268h0.747v4.112l-0.219 0.169c0-0.491 0.070-0.919 0.209-1.284 0.146-0.365 0.362-0.647 0.647-0.846 0.292-0.206 0.657-0.309 1.095-0.309h0.040c0.637 0 1.118 0.209 1.444 0.627 0.332 0.418 0.498 0.999 0.498 1.742v3.056h-0.737v-3.216c0-0.471-0.129-0.843-0.388-1.115s-0.607-0.408-1.045-0.408c-0.471 0-0.846 0.153-1.125 0.458-0.279 0.299-0.418 0.694-0.418 1.185v3.096h-0.747z"></path>
            <path d="M31.153 22.667l1.045-4.733h0.971l1.211 4.733h-0.601l-1.211-4.705h0.222l-1.054 4.705h-0.582zM30.756 22.667v-0.564h0.841v0.564h-0.841zM30.589 22.667l-1.414-4.89h0.666l1.396 4.89h-0.647zM33.936 22.667v-0.564h0.823v0.564h-0.823zM34.296 22.667l1.22-4.89h0.638l-1.248 4.89h-0.61z"></path>
        </symbol>
    </defs>
</svg>