<svg style="position: absolute; width: 0; height: 0; overflow: hidden;" aria-hidden="true" version="1.1" xmlns="http://www.w3.org/2000/svg" xmlns:xlink="http://www.w3.org/1999/xlink">
    <defs>
        <symbol id="star-outline" viewBox="0 0 24 24" fill="none">
            <path stroke-width="2" stroke="currentColor" d="M12 1c0.0375 0 0.0716 0.0106 0.0986 0.0283 0.0231 0.0153 0.0582 0.0468 0.0869 0.1192l2.4346 6.123c0.3072 0.7721 1.0166 1.3293 1.8643 1.4004l6.3193 0.5303c0.0492 41e-4 0.0782 0.0198 0.1016 0.04 0.0283 0.0246 0.0601 0.0678 0.0791 0.1289 0.0391 0.1259 61e-4 0.2358-0.0752 0.3086l-4.8145 4.3135c-0.6221 0.5576-0.8808 1.4149-0.6972 2.2197l1.4716 6.4502c0.032 0.1403-0.021 0.2401-0.0957 0.2969-0.0381 0.0289-0.0735 0.0393-0.0976 0.041-0.0179 12e-4-0.0485-8e-4-0.0977-0.0322l-5.4101-3.4561c-0.7148-0.4567-1.6212-0.4567-2.336 0l-5.4101 3.4561C5.3727 22.9992 5.3421 23.0012 5.3242 23c-0.0241-17e-4-0.0595-0.0121-0.0976-0.041-0.0747-0.0568-0.1277-0.1566-0.0957-0.2969l1.4716-6.4502c0.1836-0.8047-0.075-1.6621-0.6972-2.2197L1.0908 9.6787C1.0095 9.6059 0.9765 9.496 1.0156 9.3701 1.0346 9.309 1.0664 9.2658 1.0947 9.2412 1.1181 9.221 1.147 9.2053 1.1963 9.2012l6.3193-0.5303c0.8477-0.0711 1.5571-0.6281 1.8643-1.4004l2.4346-6.123c0.0287-0.0724 0.0638-0.1039 0.0869-0.1192C11.9284 1.0106 11.9625 1 12 1z" />
        </symbol>
        <symbol id="x" viewBox="0 0 18 16" fill="none">
            <path fill="currentColor" d="M14.1761 0h2.7601l-6.0301 6.7774L18 16h-5.5544l-4.3505-5.5934L3.1172 16H0.3554l6.4498-7.2492L0 0h5.6955l3.9324 5.1126zM13.2073 14.3754h1.5295L4.8644 1.5393l-1.6412 0z" />
        </symbol>
        <symbol id="burger" viewBox="0 0 16 12" fill="none">
            <path fill="currentColor" d="M0 0h16v2H0zM0 5h16v2H0zM0 10h16v2H0z" />
        </symbol>
        <symbol id="close" viewBox="0 0 12 12" fill="none">
            <path fill="currentColor" d="M9.899 0 5.656 4.242 1.414 0 0 1.414 4.242 5.656 0 9.898l1.414 1.414 4.242-4.242 4.243 4.242 1.414-1.414-4.242-4.242 4.242-4.242z" />
        </symbol>
        <symbol id="youtube" viewBox="0 0 21 15" fill="none">
            <path fill="currentColor" d="M19.607 2.203c-0.1139-0.4226-0.3365-0.808-0.6456-1.1178-0.3092-0.3099-0.6941-0.5333-1.1164-0.6482C16.279 7e-3 10.014 0 10.014 0c0 0-6.264-7e-3-7.831 0.404-0.4221 0.1202-0.8062 0.3468-1.1154 0.6581C0.7583 1.3735 0.5343 1.7591 0.417 2.182 4e-3 3.748 0 6.996 0 6.996c0 0-4e-3 3.264 0.406 4.814 0.23 0.857 0.905 1.534 1.763 1.765 1.582 0.43 7.83 0.437 7.83 0.437s6.265 7e-3 7.831-0.403c0.4225-0.1147 0.8077-0.3376 1.1177-0.6468 0.3099-0.3092 0.5337-0.694 0.6493-1.1162 0.414-1.565 0.417-4.812 0.417-4.812 0 0 0.02-3.265-0.407-4.831zM8.01 10.005l5e-3-6 5.207 3.005z" />
        </symbol>
        <symbol id="linkedin" viewBox="0 0 18 18" fill="none">
            <path fill="currentColor" d="M16.3125 0H1.6875C0.7594 0 0 0.7594 0 1.6875v14.625C0 17.2406 0.7594 18 1.6875 18h14.625C17.2406 18 18 17.2406 18 16.3125V1.6875C18 0.7594 17.2406 0 16.3125 0zM6.75 14.625H4.5V6.75h2.25zM5.625 5.625C5.0029 5.625 4.5 5.1221 4.5 4.5c0-0.6221 0.5029-1.125 1.125-1.125S6.75 3.8779 6.75 4.5c0 0.6221-0.5029 1.125-1.125 1.125zM14.625 14.625h-2.25v-4.5C12.375 9.5029 11.8721 9 11.25 9s-1.125 0.5029-1.125 1.125v4.5h-2.25V6.75h2.25v1.3956C10.5891 7.5094 11.2989 6.75 12.0938 6.75c1.3994 0 2.5312 1.2589 2.5312 2.8125z" />
        </symbol>
        <symbol id="instagram" viewBox="0 0 24 24" fill="currentColor">
            <path d="M11.9988 4.6209c2.4044 0 2.689 0.0107 3.6344 0.0529 0.8791 0.0388 1.3532 0.1861 1.6698 0.3093 0.4185 0.162 0.7205 0.3588 1.0332 0.6715 0.3166 0.3167 0.5096 0.6153 0.6749 1.0338 0.1232 0.3166 0.2705 0.7941 0.3093 1.6698 0.0422 0.9494 0.0529 1.234 0.0529 3.635 0 2.401-0.0107 2.6889-0.0529 3.6349-0.0388 0.8791-0.1861 1.3532-0.3093 1.6699-0.162 0.4184-0.3583 0.7204-0.6715 1.0331-0.3167 0.3167-0.6153 0.5096-1.0332 0.675-0.3166 0.1231-0.7947 0.2705-1.6698 0.3093-0.9494 0.0422-1.234 0.0529-3.635 0.0529-2.401 0-2.6889-0.0107-3.6349-0.0529-0.8791-0.0388-1.3532-0.1862-1.6699-0.3093-0.4184-0.162-0.7205-0.3583-1.0337-0.6716-0.3167-0.3166-0.5096-0.6153-0.6749-1.0332-0.1232-0.3166-0.2706-0.7947-0.3094-1.6698-0.0421-0.9494-0.0528-1.234-0.0528-3.635 0-2.4009 0.0107-2.6889 0.0528-3.6349 0.0388-0.8791 0.1862-1.3532 0.3094-1.6698C5.1502 6.2733 5.347 5.9713 5.6597 5.658 5.9764 5.3414 6.275 5.1485 6.6934 4.9831 7.0101 4.8599 7.4876 4.7126 8.3633 4.6738c0.9454-0.0422 1.2306-0.0529 3.6349-0.0529zM11.9988 3.0006c-2.4432 0-2.7486 0.0107-3.7086 0.0528-0.9561 0.0422-1.6136 0.1969-2.1828 0.4185-0.5939 0.2317-1.0967 0.5377-1.5956 1.0405C4.009 5.0118 3.703 5.514 3.4713 6.1046 3.2497 6.6777 3.0951 7.3312 3.0529 8.2874 3.0107 9.2508 3 9.5562 3 11.9994c0 2.4431 0.0107 2.7485 0.0529 3.7086 0.0421 0.9561 0.1968 1.6136 0.4184 2.1828 0.2323 0.5939 0.5377 1.0967 1.0405 1.5956 0.4989 0.4988 1.0017 0.8087 1.5922 1.0371 0.5731 0.2216 1.2267 0.3762 2.1828 0.4184 0.9595 0.0422 1.2655 0.0529 3.7086 0.0529 2.4432 0 2.7492-0.0107 3.7087-0.0529 0.9561-0.0422 1.6136-0.1968 2.1827-0.4184 0.5906-0.2284 1.0934-0.5377 1.5923-1.0371 0.4988-0.4995 0.8087-1.0017 1.0371-1.5923 0.2216-0.5731 0.3762-1.2266 0.4184-2.1827 0.0422-0.9595 0.0529-1.2655 0.0529-3.7087 0-2.4431-0.0107-2.7485-0.0529-3.7086-0.0422-0.9561-0.1968-1.6136-0.4184-2.1828-0.2216-0.5978-0.5276-1.1001-1.0298-1.5995-0.4989-0.4989-1.0017-0.8088-1.5923-1.0371-0.5731-0.2216-1.2266-0.3763-2.1827-0.4185C14.7485 3.0107 14.4425 3 11.9994 3z" />
            <path d="M11.9985 7.3767c-2.5517 0-4.6225 2.0703-4.6225 4.6226 0 2.5523 2.0703 4.6226 4.6225 4.6226 2.5523 0 4.6226-2.0703 4.6226-4.6226 0-2.5517-2.0703-4.6226-4.6226-4.6226zM11.9985 14.9976c-1.6557 0-2.9982-1.3425-2.9982-2.9983 0-1.6558 1.3425-2.9983 2.9982-2.9983 1.6558 0 2.9983 1.3425 2.9983 2.9983s-1.3425 2.9983-2.9983 2.9983z" />
            <path d="M17.8822 7.194c0 0.5962-0.4831 1.0793-1.0793 1.0793-0.5961 0-1.0793-0.4831-1.0793-1.0793 0-0.5961 0.4832-1.0793 1.0793-1.0793 0.5962 0 1.0793 0.4832 1.0793 1.0793z" />
        </symbol>
        <symbol id="facebook" viewBox="0 0 20 20" fill="none">
            <path fill="currentColor" d="M20 10.0611C20 4.5045 15.5229 0 10 0 4.4772 0 0 4.5045 0 10.0611 0 15.0828 3.6568 19.2452 8.4375 20v-7.0306H5.8984l0-2.9083h2.5391V7.8445c0-2.5215 1.493-3.9144 3.7771-3.9144 1.0942 0 2.2385 0.1965 2.2385 0.1965v2.476l-1.2609 0c-1.2422 0-1.6297 0.7756-1.6297 1.5713v1.8872h2.7734l-0.4433 2.9083h-2.3301V20C16.3432 19.2452 20 15.083 20 10.0611z" />
        </symbol>
        <symbol id="location" viewBox="0 0 16 20" fill="currentColor">
            <path d="M8.0001 12c2.206 0 4-1.794 4-4s-1.794-4-4-4c-2.206 0-4 1.794-4 4 0 2.206 1.794 4 4 4zM8.0001 6c1.103 0 2 0.897 2 2s-0.897 2-2 2c-1.103 0-2-0.897-2-2 0-1.103 0.897-2 2-2z" />
            <path d="M7.4201 19.814c0.1692 0.1209 0.372 0.1858 0.58 0.1858 0.208 0 0.4107-0.0649 0.58-0.1858 0.304-0.215 7.449-5.374 7.42-11.814 0-4.411-3.589-8-8-8-4.411 0-8 3.589-8 7.995-0.029 6.445 7.116 11.604 7.42 11.819zM8.0001 2c3.309 0 6 2.691 6 6.005 0.021 4.438-4.388 8.423-6 9.73-1.611-1.308-6.021-5.294-6-9.735 0-3.309 2.691-6 6-6z" />
        </symbol>
        <symbol id="phone" viewBox="0 0 19 19" fill="none">
            <path fill="currentColor" d="M14.7122 10.2932c-0.0928-0.0929-0.203-0.1667-0.3243-0.217S14.1365 10 14.0052 10s-0.2614 0.0259-0.3827 0.0762-0.2315 0.1241-0.3243 0.217l-1.594 1.594c-0.739-0.22-2.118-0.72-2.992-1.594-0.874-0.874-1.374-2.253-1.594-2.992l1.594-1.594c0.093-0.0928 0.1667-0.203 0.217-0.3243 0.0503-0.1213 0.0762-0.2514 0.0762-0.3827 0-0.1313-0.0259-0.2614-0.0762-0.3827-0.0503-0.1213-0.124-0.2315-0.217-0.3243l-4-4c-0.0928-0.0929-0.203-0.1667-0.3243-0.217C4.2666 0.0259 4.1366 0 4.0052 0 3.8739 0 3.7438 0.0259 3.6225 0.0762 3.5012 0.1265 3.391 0.2003 3.2982 0.2932l-2.712 2.712c-0.38 0.38-0.594 0.902-0.586 1.435 0.023 1.424 0.4 6.37 4.298 10.268 3.898 3.898 8.844 4.274 10.269 4.298h0.028c0.528 0 1.027-0.208 1.405-0.586l2.712-2.712c0.093-0.0928 0.1667-0.203 0.217-0.3243s0.0762-0.2514 0.0762-0.3827-0.0259-0.2614-0.0762-0.3827-0.124-0.2315-0.217-0.3243zM14.5852 17.0052c-1.248-0.021-5.518-0.356-8.873-3.712-3.366-3.366-3.692-7.651-3.712-8.874l2.005-2.005 2.586 2.586-1.293 1.293C5.1807 6.4107 5.0943 6.5555 5.0468 6.7148 4.9993 6.874 4.9922 7.0426 5.0262 7.2052c0.024 0.115 0.611 2.842 2.271 4.502 1.66 1.66 4.387 2.247 4.502 2.271 0.1626 0.035 0.3313 0.0285 0.4907-0.0189 0.1593-0.0474 0.3042-0.1341 0.4213-0.2521l1.294-1.293 2.586 2.586z" />
        </symbol>
        <symbol id="e-mail" viewBox="0 0 20 16" fill="none">
            <path fill="currentColor" d="M18 0H2C0.897 0 0 0.897 0 2v12c0 1.103 0.897 2 2 2h16c1.103 0 2-0.897 2-2V2c0-1.103-0.897-2-2-2zM18 2v0.511l-8 6.223-8-6.222V2zM2 14V5.044l7.386 5.745c0.1751 0.1375 0.3913 0.2123 0.614 0.2123 0.2227 0 0.4389-0.0748 0.614-0.2123L18 5.044 18.002 14z" />
        </symbol>
        <symbol id="book" viewBox="0 0 18 20" fill="currentColor">
            <path d="M3 20h15v-2H3.012C2.55 17.988 2 17.805 2 17s0.55-0.988 1.012-1H18V2c0-1.103-0.897-2-2-2H3C1.794 0 0 0.799 0 3v14c0 2.201 1.794 3 3 3zM2 3c0-0.805 0.55-0.988 1-1h13v12H2z" />
            <path d="M5 4h9v2H5z" />
        </symbol>
        <symbol id="leaf" viewBox="0 0 19 20" fill="none">
            <path fill="currentColor" d="M18.7235 0l-1.2 0.4c-2.0566 0.7145-4.2527 0.9338-6.41 0.64-2.2669-0.3518-4.5871-0.0392-6.68 0.9C3.324 2.4125 2.3503 3.1549 1.601 4.0998 0.8517 5.0447 0.3507 6.162 0.1435 7.35c-0.2107 1.1424-0.1892 2.3156 0.0634 3.4496 0.2525 1.1339 0.7309 2.2054 1.4066 3.1504-0.06 0.21-0.12 0.42-0.17 0.63-0.4062 1.727-0.6075 3.4959-0.6 5.27h2c0.094-1.4522 0.2912-2.8958 0.59-4.32 1.3874 0.7492 2.9433 1.1313 4.52 1.11 1.4705-1e-3 2.9258-0.2968 4.28-0.87 7.61-3.25 6.61-14.06 6.61-14.51zM11.4535 13.93c-2.61 1.11-5.73 0.92-7.48-0.45 0.2958-0.989 0.7017-1.9416 1.21-2.84 0.3952-0.6466 0.8614-1.247 1.39-1.79 0.5401-0.5488 1.1484-1.026 1.81-1.42 1.3671-0.8175 2.8832-1.3546 4.46-1.58v-1c-1.8142-0.0628-3.6173 0.3074-5.26 1.08-1.6796 0.8195-3.104 2.0814-4.12 3.65-0.3768 0.5991-0.711 1.224-1 1.87C2 10.2644 1.8686 8.9748 2.0835 7.72 2.2243 6.8415 2.5864 6.0134 3.1357 5.3136 3.6851 4.6138 4.4036 4.0653 5.2235 3.72c1.1956-0.5588 2.5002-0.8457 3.82-0.84 0.62 0 1.23 0.06 1.87 0.11 2.0043 0.2586 4.0393 0.1399 6-0.35-0.07 2.76-0.57 9.21-5.46 11.29z" />
        </symbol>
        <symbol id="donate-heart" viewBox="0 0 20 19" fill="none">
            <path fill="currentColor" d="M2 19h9.62c0.5771 3e-4 1.1474-0.1244 1.6716-0.3656 0.5243-0.2411 0.9901-0.593 1.3654-1.0314l5.102-5.952c0.1068-0.1244 0.1814-0.2732 0.2172-0.4332 0.0358-0.1601 0.0317-0.3265-0.012-0.4845-0.0436-0.1581-0.1255-0.303-0.2384-0.422s-0.2532-0.2084-0.4088-0.2603l-1.968-0.656c-0.4756-0.1546-0.9821-0.1896-1.4745-0.1018-0.4924 0.0877-0.9555 0.2954-1.3485 0.6048l-3.185 2.547-0.617-1.235c-0.3305-0.6657-0.8409-1.2256-1.4733-1.6162C8.6184 9.2033 7.8893 8.9975 7.146 9L2 9c-1.103 0-2 0.897-2 2v6c0 1.103 0.897 2 2 2zM2 11h5.146c0.763 0 1.448 0.423 1.789 1.105L9.382 13H5v2h6.014c0.1539-2e-3 0.3051-0.0397 0.442-0.11l3e-3-1e-3 4e-3-2e-3h3e-3l2e-3-1e-3h4e-3l1e-3-1e-3c9e-3 3e-3 3e-3-1e-3 3e-3-1e-3 0.01 0 2e-3-1e-3 2e-3-1e-3h1e-3l2e-3-1e-3 3e-3-1e-3 4e-3-2e-3 3e-3-1e-3 2e-3-1e-3c3e-3 0 2e-3-1e-3 2e-3-1e-3l3e-3-2e-3 4e-3-2e-3 3e-3-1e-3 2e-3-1e-3h1e-3l2e-3-1e-3 3e-3-1e-3 2e-3-1e-3c9e-3-1e-3 3e-3-1e-3 3e-3-1e-3l2e-3-1e-3c0.0385-0.0232 0.0753-0.0493 0.11-0.078l4.146-3.317c0.262-0.208 0.623-0.273 0.94-0.167l0.557 0.186-4.133 4.823c-0.1901 0.2159-0.424 0.3889-0.686 0.5075-0.2621 0.1186-0.5463 0.1801-0.834 0.1805H2zM13.983 0C13.82 2e-3 12.977 0.039 12 0.705c-0.951-0.648-1.774-0.7-1.968-0.704L10.002 0 9.998 0C9.197 0 8.443 0.313 7.879 0.878 7.313 1.445 7 2.198 7 3 7 3.802 7.313 4.555 7.861 5.104l3.414 3.586c0.0939 0.0975 0.2066 0.1751 0.3312 0.228 0.1246 0.0529 0.2586 0.0802 0.394 0.0801 0.1354-1e-4 0.2694-0.0275 0.3939-0.0806 0.1246-0.0532 0.2371-0.1309 0.3309-0.2285l3.396-3.568C16.688 4.555 17 3.802 17 3c0-0.802-0.313-1.555-0.878-2.121-0.2777-0.2794-0.608-0.501-0.9719-0.6519C14.7862 0.0762 14.3959-1e-3 14.002 0zM15 3c0 0.267-0.104 0.518-0.311 0.725L12 6.55 9.293 3.707C9.104 3.518 9 3.267 9 3 9 2.733 9.104 2.482 9.294 2.292 9.4748 2.1081 9.7211 2.0031 9.979 2c0.025 1e-3 0.502 0.032 1.067 0.485 0.081 0.065 0.163 0.139 0.247 0.222L12 3.414l0.707-0.707c0.084-0.083 0.166-0.157 0.247-0.222 0.529-0.425 0.976-0.478 1.052-0.484 0.1303 0 0.2594 0.0258 0.3797 0.0759s0.2295 0.1236 0.3213 0.2161C14.896 2.482 15 2.733 15 3z" />
        </symbol>
        <symbol id="star-fiiled" viewBox="0 0 24 24" fill="none">
            <path fill="currentColor" d="M10.8851 0.778c0.4125-1.0373 1.8174-1.0373 2.2299 0l2.4345 6.1229c0.174 0.4373 0.5672 0.7361 1.0185 0.774l6.3193 0.5299c1.0706 0.0898 1.5048 1.4874 0.689 2.2183l-4.8145 4.314c-0.3439 0.3082-0.4942 0.7917-0.3891 1.2524l1.4709 6.4503c0.2492 1.0929-0.8873 1.9567-1.804 1.3711l-5.4101-3.4567c-0.3865-0.2469-0.8725-0.2469-1.2589 0l-5.4102 3.4567c-0.9167 0.5856-2.0532-0.2782-1.804-1.3711l1.4709-6.4503c0.1051-0.4607-0.0451-0.9442-0.389-1.2524l-4.8146-4.314c-0.8158-0.7309-0.3816-2.1285 0.689-2.2183l6.3193-0.53c0.4514-0.0378 0.8446-0.3366 1.0185-0.774z" />
        </symbol>
    </defs>
</svg>